<svg width="196" height="190" viewBox="0 0 196 190" fill="none" xmlns="http://www.w3.org/2000/svg">
<g filter="url(#filter0_d)">
<rect x="49.8982" y="39" width="96.1018" height="89.4072" rx="11.5898" fill="white"/>
</g>
<path d="M89.1791 162.308H83.7172V148.309H89.0723C90.3529 148.309 91.3619 148.623 92.0992 149.25C92.8429 149.878 93.2148 150.728 93.2148 151.802C93.2148 152.526 92.9787 153.179 92.5066 153.762C92.0409 154.344 91.4718 154.696 90.7992 154.819V154.974C91.7564 155.097 92.5163 155.466 93.079 156.08C93.6417 156.688 93.923 157.455 93.923 158.379C93.923 159.615 93.5026 160.578 92.6618 161.27C91.8275 161.962 90.6666 162.308 89.1791 162.308ZM85.4635 149.852V154.344H88.2574C90.3853 154.344 91.4492 153.597 91.4492 152.103C91.4492 151.391 91.2066 150.838 90.7216 150.444C90.243 150.049 89.5703 149.852 88.7037 149.852H85.4635ZM85.4635 160.766H88.9171C89.9713 160.766 90.7701 160.556 91.3133 160.135C91.8566 159.715 92.1283 159.101 92.1283 158.292C92.1283 156.662 91.0029 155.847 88.7522 155.847H85.4635V160.766ZM99.7826 161.028C100.643 161.028 101.354 160.779 101.917 160.281C102.486 159.783 102.771 159.159 102.771 158.408V157.448L99.9572 157.632C99.1682 157.684 98.5893 157.849 98.2207 158.127C97.852 158.405 97.6677 158.809 97.6677 159.34C97.6677 159.864 97.865 160.278 98.2595 160.582C98.654 160.879 99.1617 161.028 99.7826 161.028ZM99.4721 162.493C98.4438 162.493 97.5966 162.211 96.9304 161.649C96.2707 161.08 95.9409 160.323 95.9409 159.379C95.9409 158.447 96.2707 157.716 96.9304 157.186C97.5901 156.656 98.5311 156.355 99.7535 156.284L102.771 156.1V155.149C102.771 154.502 102.57 154.007 102.169 153.665C101.768 153.322 101.18 153.15 100.403 153.15C99.7761 153.15 99.2555 153.264 98.8416 153.49C98.4276 153.716 98.1625 154.036 98.046 154.45H96.358C96.468 153.616 96.8981 152.943 97.6483 152.432C98.405 151.922 99.3428 151.666 100.462 151.666C101.729 151.666 102.709 151.973 103.401 152.588C104.093 153.202 104.439 154.056 104.439 155.149V162.308H102.848V160.766H102.693C102.357 161.322 101.91 161.749 101.354 162.046C100.798 162.344 100.171 162.493 99.4721 162.493ZM107.524 162.308V151.85H109.115V153.403H109.27C109.426 152.892 109.775 152.475 110.318 152.151C110.861 151.828 111.479 151.666 112.171 151.666C112.488 151.666 112.766 151.682 113.005 151.715V153.383C112.779 153.319 112.423 153.286 111.938 153.286C111.143 153.286 110.486 153.526 109.969 154.004C109.452 154.483 109.193 155.091 109.193 155.828V162.308H107.524Z" fill="#131010"/>
<path d="M100.738 88.5474L101.115 88.2757C104.615 85.747 106.792 81.9939 107.19 77.9495C112.472 77.5599 116.643 73.4366 116.643 68.4241C116.643 66.7078 116.148 65.0244 115.211 63.5558C114.991 63.2101 114.511 63.0961 114.14 63.3011C113.768 63.5061 113.646 63.9524 113.866 64.2981C114.659 65.5422 115.078 66.9689 115.078 68.4241C115.078 72.6131 111.643 76.0697 107.255 76.4831C107.253 76.2536 107.247 76.0237 107.234 75.7933L107.233 75.7808L106.822 70.4679C106.792 70.0874 106.452 69.7926 106.042 69.7926H97.791C97.7091 69.3474 97.6642 68.8907 97.6642 68.4241C97.6642 63.9574 101.57 60.3235 106.371 60.3235C108.374 60.3235 110.329 60.9714 111.877 62.1479C112.211 62.4023 112.704 62.356 112.977 62.0449C113.25 61.7337 113.201 61.2754 112.866 61.0211C111.04 59.6328 108.734 58.8683 106.371 58.8683C100.708 58.8683 96.0999 63.155 96.0999 68.4241C96.0999 68.8888 96.1365 69.3455 96.2057 69.7926H87.4971C87.065 69.7926 86.715 70.1184 86.715 70.5202C86.715 70.9221 87.065 71.2478 87.4971 71.2478H96.5578C97.7841 74.9289 101.342 77.6647 105.619 77.9541C105.474 79.271 105.121 80.5522 104.577 81.7577C103.641 80.9001 101.92 79.7453 99.4391 79.7453C98.8331 79.7453 98.2273 79.8408 97.6232 80.0018C97.6494 79.799 97.664 79.594 97.664 79.3866C97.664 76.5782 95.208 74.2935 92.1894 74.2935C89.1708 74.2935 86.7149 76.5782 86.7149 79.3866C86.7149 79.5094 86.7208 79.6307 86.7299 79.7514C84.4059 79.8371 82.794 80.9181 81.886 81.755C81.0608 79.9241 80.6733 77.9189 80.7921 75.8788L81.1506 71.2479H84.1267C84.5587 71.2479 84.9088 70.9222 84.9088 70.5203C84.9088 70.1185 84.5587 69.7927 84.1267 69.7927H80.4228C80.0127 69.7927 79.6722 70.0875 79.6428 70.468L79.2315 75.7809L79.2306 75.7934C78.9458 80.6359 81.2331 85.3022 85.3493 88.2758L85.7261 88.5475C89.162 91.0212 90.8867 92.2629 90.8867 98.801V101.388C90.8867 102.924 89.5444 104.173 87.8947 104.173H81.626C79.8323 104.173 78.3728 105.532 78.3728 107.201C78.3728 107.939 79.0177 108.539 79.8103 108.539H97.5077C97.9397 108.539 98.2897 108.213 98.2897 107.811C98.2897 107.41 97.9397 107.084 97.5077 107.084H79.9417C80.0064 106.271 80.7372 105.629 81.6261 105.629H87.8948C90.4071 105.629 92.4509 103.726 92.4509 101.388V98.8009C92.4509 94.7818 91.7459 92.4831 90.5264 90.8064C91.4435 91.0592 92.3532 91.194 93.2321 91.194C94.1057 91.194 95.0131 91.0644 95.9289 90.8189C94.715 92.4945 94.0135 94.7918 94.0135 98.801V101.388C94.0135 103.726 96.0575 105.629 98.5697 105.629H104.838C105.727 105.629 106.458 106.271 106.523 107.084H100.889C100.457 107.084 100.107 107.41 100.107 107.811C100.107 108.213 100.457 108.539 100.889 108.539H106.654C107.447 108.539 108.092 107.939 108.092 107.201C108.092 105.532 106.632 104.173 104.838 104.173H98.5697C96.9199 104.173 95.5777 102.924 95.5777 101.388V98.801C95.5777 92.2628 97.3023 91.0211 100.738 88.5474V88.5474ZM98.2108 71.2478H105.314L105.672 75.8787C105.684 76.0855 105.689 76.2917 105.691 76.4976C102.254 76.2491 99.3698 74.1374 98.2108 71.2478ZM92.1895 75.7485C94.3458 75.7485 96.0999 77.3805 96.0999 79.3865C96.0999 79.8185 96.0192 80.2371 95.8622 80.6351C95.0026 81.0122 94.15 81.4676 93.3096 81.9167C92.6211 82.2846 91.9522 82.642 91.3189 82.9332C89.8927 82.6342 88.7956 81.6344 88.4198 80.362C88.4153 80.3422 88.4101 80.3226 88.4038 80.3034C88.3228 80.0099 88.279 79.7028 88.279 79.3865C88.2791 77.3805 90.0333 75.7485 92.1895 75.7485V75.7485ZM89.133 83.618C86.8138 83.9339 84.301 83.243 82.9874 82.793C83.7194 82.1241 85.0816 81.2008 87.0258 81.2008C87.0404 81.2008 87.0556 81.202 87.0702 81.2022C87.472 82.1903 88.1948 83.0337 89.133 83.618V83.618ZM87.1333 87.7209C86.9857 87.614 86.3086 87.1263 86.3086 87.1263C85.2567 86.3664 84.3377 85.4835 83.5659 84.5094C84.768 84.8471 86.2997 85.1558 87.8843 85.1558C88.5557 85.1558 89.2363 85.1004 89.9052 84.9684C90.5073 84.8495 91.1233 84.6304 91.7544 84.3534C91.7569 84.3523 91.7593 84.3512 91.7618 84.3501C92.5151 84.019 93.2898 83.6055 94.0886 83.1786C94.9761 82.7043 95.8783 82.2224 96.7611 81.8528C96.7824 81.8448 96.8033 81.8362 96.8238 81.8265C97.7291 81.4527 98.6132 81.2005 99.4391 81.2005C101.77 81.2005 103.252 82.5085 103.841 83.1541C102.92 84.6718 101.677 86.0275 100.156 87.1264C100.156 87.1264 99.4785 87.6144 99.3307 87.7214C97.3425 88.9959 95.1211 89.7389 93.2321 89.7389C91.3432 89.7387 89.1217 88.9956 87.1333 87.7209V87.7209Z" fill="#67C117"/>
<path d="M105.693 62.5547V64.1069C105.693 64.5088 106.043 64.8345 106.475 64.8345C106.908 64.8345 107.258 64.5088 107.258 64.1069V62.5547C107.258 62.1529 106.908 61.8271 106.475 61.8271C106.043 61.8271 105.693 62.1529 105.693 62.5547Z" fill="#67C117"/>
<path d="M104.03 65.4411C104.163 65.4411 104.298 65.4097 104.421 65.3435C104.795 65.1426 104.923 64.6976 104.707 64.3496L103.873 63.0054C103.657 62.6573 103.178 62.5381 102.804 62.7391C102.43 62.94 102.302 63.385 102.518 63.733L103.352 65.0772C103.497 65.3106 103.76 65.4411 104.03 65.4411Z" fill="#67C117"/>
<path d="M109.088 74.319C109.232 74.5524 109.495 74.6829 109.766 74.6829C109.898 74.6829 110.033 74.6515 110.156 74.5853C110.53 74.3844 110.658 73.9394 110.442 73.5914L109.608 72.2472C109.392 71.8992 108.913 71.78 108.54 71.9809C108.166 72.1818 108.037 72.6268 108.253 72.9748L109.088 74.319Z" fill="#67C117"/>
<path d="M102.914 66.7402C103.13 66.3922 103.002 65.9472 102.628 65.7463L101.183 64.9702C100.809 64.7692 100.331 64.8885 100.115 65.2365C99.8991 65.5845 100.027 66.0295 100.401 66.2304L101.846 67.0065C101.969 67.0726 102.104 67.1041 102.236 67.1041C102.507 67.1042 102.77 66.9736 102.914 66.7402Z" fill="#67C117"/>
<path d="M112.17 72.4399C112.44 72.4399 112.703 72.3093 112.848 72.076C113.064 71.728 112.936 71.283 112.562 71.0821L111.117 70.306C110.743 70.1049 110.265 70.2243 110.049 70.5723C109.833 70.9202 109.961 71.3652 110.335 71.5662L111.78 72.3423C111.903 72.4083 112.038 72.4399 112.17 72.4399Z" fill="#67C117"/>
<path d="M101.579 67.9227H99.9103C99.4782 67.9227 99.1282 68.2485 99.1282 68.6503C99.1282 69.0521 99.4782 69.3779 99.9103 69.3779H101.579C102.011 69.3779 102.361 69.0521 102.361 68.6503C102.361 68.2485 102.011 67.9227 101.579 67.9227Z" fill="#67C117"/>
<path d="M113.831 68.6503C113.831 68.2485 113.481 67.9227 113.049 67.9227H111.381C110.949 67.9227 110.599 68.2485 110.599 68.6503C110.599 69.0521 110.949 69.3779 111.381 69.3779H113.049C113.481 69.3779 113.831 69.0521 113.831 68.6503Z" fill="#67C117"/>
<path d="M110.042 66.7299C110.187 66.9634 110.45 67.0938 110.72 67.0938C110.853 67.0938 110.987 67.0624 111.11 66.9962L112.555 66.2201C112.929 66.0192 113.057 65.5742 112.841 65.2262C112.626 64.8782 112.147 64.7589 111.773 64.9599L110.328 65.736C109.954 65.937 109.826 66.382 110.042 66.7299V66.7299Z" fill="#67C117"/>
<path d="M110.144 62.7215C109.77 62.5205 109.292 62.6397 109.076 62.9878L108.242 64.332C108.026 64.68 108.154 65.125 108.528 65.3259C108.651 65.392 108.786 65.4235 108.918 65.4235C109.189 65.4235 109.451 65.293 109.596 65.0596L110.43 63.7154C110.646 63.3674 110.518 62.9224 110.144 62.7215Z" fill="#67C117"/>
<defs>
<filter id="filter0_d" x="0.227531" y="0.91916" width="195.443" height="188.749" filterUnits="userSpaceOnUse" color-interpolation-filters="sRGB">
<feFlood flood-opacity="0" result="BackgroundImageFix"/>
<feColorMatrix in="SourceAlpha" type="matrix" values="0 0 0 0 0 0 0 0 0 0 0 0 0 0 0 0 0 0 127 0"/>
<feOffset dy="11.5898"/>
<feGaussianBlur stdDeviation="24.8353"/>
<feColorMatrix type="matrix" values="0 0 0 0 0.4 0 0 0 0 0.678431 0 0 0 0 0.152941 0 0 0 0.17 0"/>
<feBlend mode="normal" in2="BackgroundImageFix" result="effect1_dropShadow"/>
<feBlend mode="normal" in="SourceGraphic" in2="effect1_dropShadow" result="shape"/>
</filter>
</defs>
</svg>
