<svg xmlns="http://www.w3.org/2000/svg" width="164.312" height="42.549" viewBox="0 0 164.312 42.549">
  <g id="Group_5" data-name="Group 5" transform="translate(-1060.067 -457.28)">
    <g id="Group_2" data-name="Group 2" transform="translate(1060.067 457.28)">
      <g id="Group_1" data-name="Group 1" transform="translate(8.105 0)">
        <circle id="Ellipse_1" data-name="Ellipse 1" cx="3.575" cy="3.575" r="3.575" transform="translate(11.962 35.398)" fill="#67c117"/>
        <circle id="Ellipse_2" data-name="Ellipse 2" cx="3.575" cy="3.575" r="3.575" transform="translate(25.2 38.441) rotate(-76.635)" fill="#67c117"/>
        <path id="Path_2" data-name="Path 2" d="M1123.441,476.7c-4.127-6.02-6.3-5.358-8.907-3.214s-4.463,3.912-7.667,6.58a8.7,8.7,0,0,1-1.074.783c.645,1.589,1.28,2.851,1.974,3.1a1.743,1.743,0,0,0,1.271-.224l4-2.35a3.311,3.311,0,0,1-.188-2.645,4.667,4.667,0,0,1,2.686-2.726l2.7-1.073a.807.807,0,0,1,.666,1.467l-2.759,1.386a2.305,2.305,0,0,0-1.426,1.394,1.876,1.876,0,0,0,.053,1.177l4.9-2.868a.807.807,0,0,1,1.093.27l0,.008a.807.807,0,0,1-.232,1.094l-4.746,3.224a1.675,1.675,0,0,0,.92.62,2.833,2.833,0,0,0,2.115-.658l2.361-1.962a.807.807,0,0,1,1.163.224l.04.065a.807.807,0,0,1-.143,1.024l-2.28,2.141a4.693,4.693,0,0,1-3.688,1.021,3.333,3.333,0,0,1-2.225-1.455l-3.684,2.162a4.538,4.538,0,0,1-2.3.752,3.039,3.039,0,0,1-.976-.17c-2.834-.958-4.409-7.368-4.767-8.688l-2.1-6.908a1.035,1.035,0,0,0,.567-1.238l-3.273-10.986a1.039,1.039,0,0,0-1.292-.7l-3.191.951a1.039,1.039,0,0,0-.7,1.292l3.273,10.986a1.035,1.035,0,0,0,1.173.722l2.481,8.19c2.878,10.68,4.176,12.909,9.7,11.414,4.669-1.262,9.082-2.408,12.193-3.245S1127.568,482.717,1123.441,476.7Z" transform="translate(-1092.294 -457.28)" fill="#67c117"/>
      </g>
      <path id="Path_3" data-name="Path 3" d="M1077.885,527.576H1071.7a1.337,1.337,0,0,1-1.337-1.337h0a1.337,1.337,0,0,1,1.337-1.337h6.187a1.337,1.337,0,0,1,1.337,1.337h0A1.337,1.337,0,0,1,1077.885,527.576Z" transform="translate(-1067.772 -507.895)" fill="#67c117"/>
      <rect id="Rectangle_1" data-name="Rectangle 1" width="6.938" height="2.673" rx="1.337" transform="translate(6.6 33.806)" fill="#67c117"/>
      <path id="Path_4" data-name="Path 4" d="M1070.765,563.782H1061.4a1.337,1.337,0,0,1-1.337-1.337h0a1.337,1.337,0,0,1,1.337-1.336h9.361a1.337,1.337,0,0,1,1.337,1.336h0A1.337,1.337,0,0,1,1070.765,563.782Z" transform="translate(-1060.067 -534.995)" fill="#67c117"/>
    </g>
    <g id="Group_4" data-name="Group 4" transform="translate(1108.458 468.286)">
      <g id="Group_3" data-name="Group 3" transform="translate(0 0)">
        <path id="Path_5" data-name="Path 5" d="M1256.13,539.763a6.967,6.967,0,0,1-2.687-2.7,8.377,8.377,0,0,1,0-7.832,6.875,6.875,0,0,1,2.687-2.686,7.835,7.835,0,0,1,3.887-.957,7.529,7.529,0,0,1,3.273.7,5.918,5.918,0,0,1,2.386,2.044l-1.057.772a5.086,5.086,0,0,0-1.986-1.672,6.077,6.077,0,0,0-2.615-.558,6.233,6.233,0,0,0-3.13.786,5.583,5.583,0,0,0-2.172,2.215,7.267,7.267,0,0,0,0,6.573,5.577,5.577,0,0,0,2.172,2.215,6.227,6.227,0,0,0,3.13.786,6.077,6.077,0,0,0,2.615-.558,5.086,5.086,0,0,0,1.986-1.672l1.057.771a5.911,5.911,0,0,1-2.386,2.044,7.524,7.524,0,0,1-3.273.7A7.741,7.741,0,0,1,1256.13,539.763Z" transform="translate(-1252.472 -519.414)" fill="#67c117"/>
        <path id="Path_6" data-name="Path 6" d="M1315.179,521.291a4.165,4.165,0,0,1-1-2.958V501.041h1.429v17.12a3.287,3.287,0,0,0,.657,2.215,2.471,2.471,0,0,0,1.972.758,3.682,3.682,0,0,0,1.429-.286l.115,1.2a4.651,4.651,0,0,1-1.715.315A3.757,3.757,0,0,1,1315.179,521.291Z" transform="translate(-1298.659 -501.041)" fill="#67c117"/>
        <path id="Path_7" data-name="Path 7" d="M1353.773,526.041V540.96H1352.4v-3.2a5.532,5.532,0,0,1-2.2,2.443,6.551,6.551,0,0,1-3.43.872,5.715,5.715,0,0,1-6.23-6.317v-8.717h1.429v8.6a5.256,5.256,0,0,0,1.287,3.83,4.844,4.844,0,0,0,3.629,1.315,5.2,5.2,0,0,0,3.987-1.572,5.942,5.942,0,0,0,1.472-4.23v-7.946Z" transform="translate(-1318.391 -519.753)" fill="#67c117"/>
        <path id="Path_8" data-name="Path 8" d="M1417.142,508.172a6.836,6.836,0,0,1,2.644,2.686,7.983,7.983,0,0,1,.958,3.93,7.9,7.9,0,0,1-.958,3.915,6.956,6.956,0,0,1-2.644,2.686,7.417,7.417,0,0,1-3.773.972,6.948,6.948,0,0,1-3.615-.958,6.5,6.5,0,0,1-2.5-2.672v3.516h-1.372V501.041h1.429v9.689a6.439,6.439,0,0,1,2.487-2.587,6.989,6.989,0,0,1,3.573-.929A7.507,7.507,0,0,1,1417.142,508.172Zm-.772,12.1a5.712,5.712,0,0,0,2.158-2.229,7.148,7.148,0,0,0,0-6.517,5.719,5.719,0,0,0-2.158-2.229,6.017,6.017,0,0,0-3.087-.8,5.938,5.938,0,0,0-3.072.8,5.744,5.744,0,0,0-2.144,2.229,7.144,7.144,0,0,0,0,6.517,5.737,5.737,0,0,0,2.144,2.229,5.934,5.934,0,0,0,3.072.8A6.013,6.013,0,0,0,1416.37,520.276Z" transform="translate(-1367.298 -501.041)" fill="#67c117"/>
        <path id="Path_9" data-name="Path 9" d="M1486.659,524.707V537.8q0,3.972-1.972,5.873t-5.888,1.9a14.1,14.1,0,0,1-4.087-.586,8.1,8.1,0,0,1-3.144-1.672l1.315-2.115a7.755,7.755,0,0,0,2.615,1.443,9.937,9.937,0,0,0,3.216.529,5.4,5.4,0,0,0,3.93-1.258,5.175,5.175,0,0,0,1.272-3.83v-1.2a6.069,6.069,0,0,1-2.387,1.758,7.942,7.942,0,0,1-3.072.586,8.28,8.28,0,0,1-3.93-.929,6.909,6.909,0,0,1-2.758-2.6,7.776,7.776,0,0,1,0-7.631,6.812,6.812,0,0,1,2.758-2.586,8.389,8.389,0,0,1,3.93-.915,8.033,8.033,0,0,1,3.187.629,5.92,5.92,0,0,1,2.415,1.858v-2.344Zm-5.216,11.49a4.652,4.652,0,0,0,1.858-1.758,4.909,4.909,0,0,0,.671-2.558,4.638,4.638,0,0,0-1.457-3.559,5.882,5.882,0,0,0-7.517,0,4.637,4.637,0,0,0-1.458,3.559,4.9,4.9,0,0,0,.672,2.558,4.645,4.645,0,0,0,1.858,1.758,5.672,5.672,0,0,0,2.7.629A5.614,5.614,0,0,0,1481.443,536.2Z" transform="translate(-1415.865 -518.648)" fill="#67c117"/>
        <path id="Path_10" data-name="Path 10" d="M1548.124,525.25a7.678,7.678,0,0,1,3.4-.686v2.658a5.464,5.464,0,0,0-.629-.028,4.615,4.615,0,0,0-3.5,1.329,5.26,5.26,0,0,0-1.272,3.787v7.545h-2.744V524.707h2.63v2.544A4.678,4.678,0,0,1,1548.124,525.25Z" transform="translate(-1470.214 -518.648)" fill="#67c117"/>
        <path id="Path_11" data-name="Path 11" d="M1596.845,525.132V540.28h-2.6v-2.286a5.512,5.512,0,0,1-2.186,1.815,6.822,6.822,0,0,1-2.958.643,6.605,6.605,0,0,1-4.773-1.672,6.518,6.518,0,0,1-1.744-4.93v-8.717h2.744v8.4a4.7,4.7,0,0,0,1.057,3.329,3.944,3.944,0,0,0,3.029,1.129,4.522,4.522,0,0,0,3.43-1.315,5.16,5.16,0,0,0,1.258-3.716v-7.831Z" transform="translate(-1499.558 -519.073)" fill="#67c117"/>
        <path id="Path_12" data-name="Path 12" d="M1662.968,507.929a7,7,0,0,1,2.729,2.715,8.759,8.759,0,0,1,0,8.074,6.968,6.968,0,0,1-2.729,2.729,7.961,7.961,0,0,1-3.944.972,7.171,7.171,0,0,1-3.087-.657,5.931,5.931,0,0,1-2.315-1.915v2.4h-2.63V501.041h2.744v8.346a5.833,5.833,0,0,1,2.287-1.815,7.258,7.258,0,0,1,3-.615A7.966,7.966,0,0,1,1662.968,507.929Zm-1.558,11.418a4.836,4.836,0,0,0,1.829-1.886,6.117,6.117,0,0,0,0-5.573,4.743,4.743,0,0,0-1.829-1.872,5.5,5.5,0,0,0-5.216,0,4.614,4.614,0,0,0-1.829,1.872,6.235,6.235,0,0,0,0,5.573,4.7,4.7,0,0,0,1.829,1.886,5.4,5.4,0,0,0,5.216,0Z" transform="translate(-1550.762 -501.041)" fill="#67c117"/>
      </g>
    </g>
  </g>
</svg>
