<svg width="28" height="23" viewBox="0 0 28 23" fill="none" xmlns="http://www.w3.org/2000/svg">
<path fill-rule="evenodd" clip-rule="evenodd" d="M26.0624 7.00682C26.6599 7.00682 27.2146 7.26623 27.5843 7.71841C27.9473 8.16238 28.0812 8.73312 27.9518 9.28445L25.0721 21.5459C24.871 22.4021 24.0941 23 23.1827 23H4.81731C3.90595 23 3.129 22.4021 2.92792 21.5459L0.0482378 9.28451C-0.0812075 8.73317 0.0527222 8.16243 0.415683 7.71846C0.785425 7.26623 1.34012 7.00687 1.93764 7.00687H7.33004L10.2541 0.479863C10.4354 0.0750771 10.919 -0.10975 11.3341 0.0670805C11.7493 0.243858 11.9389 0.715229 11.7576 1.11996L9.12029 7.00687H18.8797L16.2424 1.11996C16.0611 0.715229 16.2507 0.243805 16.6659 0.0670805C17.081 -0.10975 17.5646 0.0751837 17.7459 0.479863L20.67 7.00682H26.0624ZM4.81731 21.4006H23.1827C23.322 21.4006 23.444 21.3116 23.4729 21.1889L26.3526 8.92754C26.3752 8.83142 26.3372 8.75903 26.3014 8.71521C26.2682 8.67448 26.1928 8.60618 26.0625 8.60618H21.3865L21.6014 9.08582C21.7827 9.49055 21.5931 9.96198 21.178 10.1387C21.0711 10.1842 20.9597 10.2058 20.8501 10.2058C20.5339 10.2058 20.2326 10.0265 20.0979 9.72597L19.5963 8.60629H8.40383L7.90218 9.72597C7.76754 10.0265 7.46621 10.2058 7.15001 10.2058C7.04036 10.2058 6.92902 10.1842 6.82216 10.1387C6.40697 9.96192 6.21742 9.49055 6.39871 9.08582L6.61358 8.60618H1.93764C1.80726 8.60618 1.73196 8.67448 1.69871 8.71521C1.66283 8.75897 1.62493 8.83137 1.64752 8.92759L4.5272 21.1889C4.55602 21.3116 4.67803 21.4006 4.81731 21.4006Z" fill="white"/>
<path d="M9 11C8.44773 11 8 11.3838 8 11.8571V18.1429C8 18.6162 8.44773 19 9 19C9.55227 19 10 18.6162 10 18.1429V11.8571C10 11.3838 9.55233 11 9 11Z" fill="white"/>
<path d="M14 11C13.4477 11 13 11.3838 13 11.8571V18.1429C13 18.6162 13.4477 19 14 19C14.5523 19 15 18.6162 15 18.1429V11.8571C15 11.3838 14.5523 11 14 11Z" fill="white"/>
<path d="M19 11C18.4477 11 18 11.3838 18 11.8571V18.1429C18 18.6162 18.4477 19 19 19C19.5523 19 20 18.6162 20 18.1429V11.8571C19.9999 11.3838 19.5523 11 19 11Z" fill="white"/>
</svg>
