<svg width="169" height="190" viewBox="0 0 169 190" fill="none" xmlns="http://www.w3.org/2000/svg">
<g filter="url(#filter0_d)">
<rect x="50.1407" y="39" width="95.8593" height="89.4072" rx="11.5898" fill="white"/>
</g>
<path d="M69.6775 148.309H74.4796C76.5557 148.309 78.1758 148.927 79.34 150.162C80.5041 151.391 81.0862 153.105 81.0862 155.304C81.0862 157.51 80.5041 159.23 79.34 160.465C78.1823 161.694 76.5622 162.308 74.4796 162.308H69.6775V148.309ZM71.4237 149.881V160.737H74.3632C75.9219 160.737 77.1346 160.261 78.0012 159.311C78.8679 158.36 79.3012 157.031 79.3012 155.323C79.3012 153.61 78.8646 152.274 77.9915 151.317C77.1249 150.36 75.9154 149.881 74.3632 149.881H71.4237ZM83.8996 162.308V151.85H85.4906V153.403H85.6458C85.8011 152.892 86.1503 152.475 86.6936 152.151C87.2368 151.828 87.8545 151.666 88.5465 151.666C88.8634 151.666 89.1415 151.682 89.3808 151.715V153.383C89.1545 153.319 88.7988 153.286 88.3137 153.286C87.5182 153.286 86.8617 153.526 86.3443 154.004C85.8269 154.483 85.5682 155.091 85.5682 155.828V162.308H83.8996ZM91.6994 162.308V151.85H93.3681V162.308H91.6994ZM93.3584 149.386C93.132 149.613 92.8571 149.726 92.5338 149.726C92.2104 149.726 91.9355 149.613 91.7091 149.386C91.4828 149.153 91.3696 148.879 91.3696 148.562C91.3696 148.245 91.4828 147.973 91.7091 147.747C91.9355 147.514 92.2104 147.398 92.5338 147.398C92.8571 147.398 93.132 147.514 93.3584 147.747C93.5847 147.973 93.6979 148.245 93.6979 148.562C93.6979 148.879 93.5847 149.153 93.3584 149.386ZM96.5501 162.308V151.85H98.1411V153.5H98.2963C98.8525 152.277 99.9003 151.666 101.44 151.666C102.61 151.666 103.512 152.002 104.146 152.675C104.78 153.341 105.097 154.295 105.097 155.537V162.308H103.428V155.944C103.428 155.007 103.225 154.311 102.817 153.859C102.416 153.399 101.799 153.17 100.964 153.17C100.123 153.17 99.454 153.435 98.956 153.965C98.4645 154.489 98.2187 155.207 98.2187 156.119V162.308H96.5501ZM110.074 156.42L114.614 151.85H116.661L112.159 156.332L116.962 162.308H114.837L110.918 157.409L109.918 158.341V162.308H108.25V147.698H109.918V156.42H110.074ZM118.31 154.712C118.31 153.846 118.682 153.121 119.426 152.539C120.17 151.957 121.098 151.666 122.21 151.666C123.303 151.666 124.205 151.918 124.917 152.423C125.628 152.927 126.039 153.61 126.149 154.47H124.5C124.383 154.043 124.124 153.707 123.723 153.461C123.329 153.209 122.821 153.082 122.2 153.082C121.573 153.082 121.046 153.228 120.619 153.519C120.199 153.81 119.988 154.185 119.988 154.644C119.988 155 120.134 155.298 120.425 155.537C120.723 155.77 121.182 155.961 121.803 156.109L123.413 156.497C124.409 156.737 125.143 157.083 125.615 157.535C126.094 157.988 126.333 158.586 126.333 159.33C126.333 160.255 125.935 161.015 125.14 161.61C124.344 162.198 123.345 162.493 122.142 162.493C120.978 162.493 120.024 162.234 119.28 161.717C118.536 161.199 118.119 160.507 118.029 159.641H119.746C119.888 160.093 120.17 160.449 120.59 160.708C121.01 160.96 121.547 161.086 122.2 161.086C122.905 161.086 123.484 160.934 123.937 160.63C124.39 160.326 124.616 159.935 124.616 159.456C124.616 158.745 124.063 158.253 122.957 157.982L121.162 157.545C120.173 157.306 119.448 156.963 118.989 156.517C118.536 156.064 118.31 155.463 118.31 154.712Z" fill="#131010"/>
<g clip-path="url(#clip0)">
<path d="M122.923 94.5516C122.923 93.1406 122.353 91.8128 121.318 90.8128L113.479 83.2411C113.47 83.2317 113.462 83.2218 113.453 83.2128C113.443 83.2037 113.433 83.1959 113.424 83.1872L110.805 80.6582C110.426 80.2921 109.812 80.2921 109.432 80.6582C109.053 81.0244 109.053 81.6182 109.432 81.9845L111.392 83.8774L108.15 87.0089C107.982 87.1711 107.882 87.3869 107.867 87.6158C107.765 89.2657 107.035 90.8274 105.815 92.0105C104.588 93.1914 102.971 93.8965 101.263 93.9958C101.026 94.0096 100.802 94.1067 100.635 94.2688L97.3928 97.4003L87.9854 88.3127L91.2259 85.1825C91.3937 85.0203 91.4942 84.8045 91.5085 84.5756C91.6114 82.9224 92.3417 81.3613 93.565 80.1796C94.7883 78.9977 96.4045 78.2922 98.1158 78.1929C98.3527 78.1792 98.5762 78.082 98.744 77.9199L101.984 74.7897L103.213 75.9767C103.403 76.1598 103.651 76.2514 103.9 76.2514C104.148 76.2514 104.397 76.1598 104.586 75.9767C104.965 75.6105 104.965 75.0167 104.586 74.6504L102.671 72.8007C102.671 72.8005 102.671 72.8003 102.671 72.8002C102.671 72.8 102.671 72.7999 102.67 72.7997L100.324 70.5326C96.7212 67.0528 93.3019 67.2549 90.8049 67.4025C89.3234 67.4902 88.4608 67.516 87.9567 67.029L86.7141 65.8287L86.7899 65.7555C86.9719 65.5795 87.0742 65.3409 87.0742 65.0922C87.0742 64.8434 86.9718 64.6048 86.7896 64.429L83.7739 61.5184C83.1102 60.8772 82.2243 60.524 81.2796 60.524C80.335 60.524 79.449 60.8772 78.7852 61.5184L74.2474 65.9019C73.5836 66.5432 73.218 67.3989 73.218 68.3115C73.218 69.2241 73.5836 70.0798 74.2471 70.7208L77.2604 73.6343C77.4424 73.8104 77.6894 73.9093 77.9469 73.9094H77.9471C78.2046 73.9094 78.4515 73.8105 78.6335 73.6347L78.7094 73.5615L79.952 74.7617C80.456 75.2486 80.4293 76.0821 80.3387 77.513C80.1859 79.925 79.9765 83.2282 83.5789 86.7082L85.9258 88.9753C85.9259 88.9754 85.9261 88.9756 85.9262 88.9758C85.9263 88.976 85.9265 88.976 85.9267 88.9761L96.6802 99.3641C96.6887 99.373 96.6964 99.3823 96.7053 99.3909C96.7143 99.3995 96.7239 99.4069 96.7331 99.4151L104.573 106.988C105.608 107.988 106.982 108.539 108.443 108.539C111.156 108.539 113.413 106.621 113.841 104.115C116.142 103.747 117.963 101.989 118.343 99.7664C120.938 99.3521 122.923 97.172 122.923 94.5516V94.5516ZM75.6203 69.3949C75.3232 69.1079 75.1596 68.7232 75.1596 68.3115C75.1596 67.8998 75.3232 67.5151 75.6203 67.2282L80.1581 62.8446C80.4552 62.5577 80.8535 62.3996 81.2796 62.3996C81.7058 62.3996 82.104 62.5577 82.4015 62.8449L84.7304 65.0926L77.9475 71.645L75.6203 69.3949ZM82.2767 77.6276C82.3771 76.0417 82.4721 74.5436 81.3249 73.4355L80.0824 72.2352L85.3414 67.155L86.584 68.3553C87.7312 69.4635 89.282 69.3717 90.9237 69.2747C93.2877 69.135 95.967 68.9765 98.9509 71.859L100.612 73.4635L97.6233 76.3503C95.5781 76.5532 93.6619 77.4338 92.1923 78.8532C90.7228 80.2729 89.8113 82.1239 89.6013 84.0995L86.6129 86.9863L84.9521 85.382C81.9679 82.4995 82.1319 79.9112 82.2767 77.6276ZM118.312 97.8591C118.103 96.8456 117.59 95.9127 116.817 95.1629C116.438 94.7962 115.824 94.7952 115.444 95.1608C115.064 95.5263 115.063 96.1202 115.442 96.4871C116.109 97.1339 116.476 97.991 116.476 98.9007C116.476 100.782 114.892 102.312 112.945 102.312C112.004 102.312 111.116 101.957 110.447 101.312C110.067 100.947 109.452 100.947 109.074 101.314C108.695 101.681 108.696 102.275 109.076 102.641C109.852 103.388 110.818 103.883 111.867 104.085C111.48 105.565 110.092 106.663 108.443 106.663C107.501 106.663 106.614 106.308 105.946 105.662L98.766 98.7264L101.756 95.8382C103.797 95.6354 105.713 94.7561 107.188 93.3365C108.655 91.9137 109.565 90.0631 109.775 88.0915L112.765 85.2034L119.945 92.1389C120.613 92.7847 120.981 93.6414 120.981 94.5515C120.981 96.1445 119.844 97.4857 118.312 97.8591V97.8591Z" fill="#67C117"/>
<path d="M101.733 80.4852C101.354 80.1191 100.739 80.1191 100.36 80.4852L93.9918 86.6365C93.6127 87.0027 93.6127 87.5966 93.9918 87.9629C94.1814 88.1459 94.4299 88.2375 94.6783 88.2375C94.9267 88.2375 95.1752 88.1459 95.3647 87.9629L101.733 81.8115C102.112 81.4453 102.112 80.8515 101.733 80.4852V80.4852Z" fill="#67C117"/>
<path d="M103.662 83.6752L97.2941 89.8266C96.9151 90.1928 96.9151 90.7866 97.2941 91.1529C97.4837 91.336 97.7322 91.4276 97.9806 91.4276C98.2291 91.4276 98.4775 91.336 98.667 91.1529L105.035 85.0015C105.414 84.6353 105.414 84.0415 105.035 83.6752C104.656 83.3091 104.041 83.3091 103.662 83.6752V83.6752Z" fill="#67C117"/>
<path d="M106.257 79.0018C106.446 79.1842 106.692 79.2751 106.939 79.2751C107.188 79.2751 107.437 79.1828 107.627 78.9991C108.006 78.6329 108.003 78.0364 107.624 77.6702C107.245 77.3041 106.631 77.3041 106.251 77.6702C105.872 78.0364 105.872 78.6302 106.251 78.9965L106.257 79.0018Z" fill="#67C117"/>
</g>
<defs>
<filter id="filter0_d" x="0.470085" y="0.91916" width="195.201" height="188.749" filterUnits="userSpaceOnUse" color-interpolation-filters="sRGB">
<feFlood flood-opacity="0" result="BackgroundImageFix"/>
<feColorMatrix in="SourceAlpha" type="matrix" values="0 0 0 0 0 0 0 0 0 0 0 0 0 0 0 0 0 0 127 0"/>
<feOffset dy="11.5898"/>
<feGaussianBlur stdDeviation="24.8353"/>
<feColorMatrix type="matrix" values="0 0 0 0 0.4 0 0 0 0 0.678431 0 0 0 0 0.152941 0 0 0 0.17 0"/>
<feBlend mode="normal" in2="BackgroundImageFix" result="effect1_dropShadow"/>
<feBlend mode="normal" in="SourceGraphic" in2="effect1_dropShadow" result="shape"/>
</filter>
<clipPath id="clip0">
<rect width="49.7048" height="48.015" fill="white" transform="translate(73.218 60.524)"/>
</clipPath>
</defs>
</svg>
