<svg width="53" height="52" viewBox="0 0 53 52" fill="none" xmlns="http://www.w3.org/2000/svg">
<g clip-path="url(#clip0)">
<path d="M25.4401 46.7815C25.0183 46.6993 24.6283 46.9848 24.5559 47.3724C24.4584 47.8404 24.828 48.2715 25.2928 48.2715C25.6962 48.2715 26.0447 47.9442 26.0447 47.5197C26.0447 47.1794 25.814 46.8602 25.4401 46.7815Z" fill="#67C117"/>
<path d="M27.9835 45.3099C27.9835 44.9692 27.7509 44.6505 27.3781 44.573C26.9172 44.4817 26.4798 44.8322 26.4798 45.3099C26.4798 45.7364 26.8287 46.0618 27.2316 46.0618C27.6522 46.0618 27.9835 45.7168 27.9835 45.3099Z" fill="#67C117"/>
<path d="M28.0227 48.7116C28.4303 48.7116 28.7749 48.3795 28.7749 47.9597C28.7749 47.6018 28.5262 47.296 28.1691 47.222C27.707 47.1304 27.2708 47.4844 27.2708 47.9597C27.2708 48.3787 27.6142 48.7116 28.0227 48.7116Z" fill="#67C117"/>
<path d="M29.9618 46.5019C30.3823 46.5019 30.7136 46.1577 30.7136 45.7513C30.7136 45.2794 30.2817 44.9215 29.8145 45.0131C29.4406 45.0906 29.2087 45.4129 29.2087 45.7513C29.2087 46.1593 29.5416 46.5019 29.9618 46.5019Z" fill="#67C117"/>
<path d="M29.9218 43.1009C29.9218 42.7591 29.6888 42.4403 29.3172 42.3632C28.8626 42.2719 28.4177 42.6189 28.4177 43.1009C28.4177 43.5105 28.7518 43.8532 29.1696 43.8532C29.5784 43.8532 29.9218 43.5227 29.9218 43.1009Z" fill="#67C117"/>
<path d="M43.4473 38.7188L42.3481 38.9839C41.9444 39.0814 41.6961 39.4879 41.7936 39.8916C41.8911 40.2949 42.2976 40.5436 42.701 40.4461L43.8001 40.1806C44.8202 39.9343 45.8622 40.4911 46.2253 41.4752C46.6368 42.5908 46.0001 43.813 44.8523 44.1168L40.9024 45.1616C39.5988 45.507 38.2149 44.9329 37.5382 43.766L35.9644 41.0515C36.9798 41.2923 37.9803 41.3808 39.103 41.2492C39.5154 41.2011 39.8106 40.8271 39.7621 40.4148C39.7139 40.0024 39.3403 39.7079 38.9276 39.7557C38.0798 39.8552 37.2289 39.8058 36.3983 39.6089L34.9252 39.26L27.335 26.1699L29.1257 23.0815C29.486 23.1488 29.8431 23.1281 30.1779 23.0302C30.7132 22.8727 31.1961 22.5101 31.4933 21.9971C31.9507 21.2085 41.2532 5.16587 41.9804 3.91161C42.6062 2.83317 42.2393 1.45361 41.1604 0.827846C40.084 0.204045 38.7009 0.571747 38.0767 1.64822L27.5899 19.7334C27.1016 20.5749 27.212 21.6079 27.8249 22.3269L26.4657 24.6705L25.1072 22.328C25.7087 21.62 25.8336 20.5816 25.3418 19.7334L14.8547 1.64783C14.2309 0.571747 12.8474 0.204045 11.7709 0.827846C10.6948 1.45204 10.3271 2.83513 10.9509 3.91161C11.6824 5.17292 20.985 21.2159 21.4381 21.9971C21.9091 22.8089 22.8446 23.2612 23.8056 23.0815L25.5963 26.1699L18.0062 39.26L16.5334 39.6089C14.4502 40.1023 13.2957 39.639 9.48441 38.7188C7.72305 38.2931 5.92213 39.2549 5.29519 40.9548C4.57859 42.8986 5.69266 45.0406 7.69485 45.5708C12.0102 46.7127 12.0372 46.7648 12.791 46.7648C14.3691 46.7648 15.8763 45.9315 16.6943 44.5202C16.9876 44.0142 26.4661 27.6689 26.4661 27.6689C26.4661 27.6689 35.9413 44.0095 36.2374 44.5202C37.0558 45.9315 38.5622 46.7648 40.1407 46.7648C40.8949 46.7648 40.9224 46.7123 45.2369 45.5704C47.2352 45.0418 48.3547 42.9017 47.6365 40.9548C47.0096 39.2549 45.2083 38.2935 43.4473 38.7188ZM39.3779 2.40243C39.5859 2.04334 40.0475 1.92077 40.4062 2.1287C40.7657 2.33742 40.8883 2.79715 40.6796 3.15702L32.0893 17.972L30.7778 17.2335L39.3779 2.40243ZM28.8908 20.4876L30.0233 18.5347L31.3347 19.2729L30.1924 21.2426C29.9872 21.5965 29.5299 21.7281 29.1641 21.5163C28.8046 21.3072 28.6821 20.8474 28.8908 20.4876ZM20.8425 17.972L12.2518 3.15702C12.0438 2.79832 12.1664 2.33703 12.5255 2.1287C12.8842 1.92077 13.3459 2.04334 13.5538 2.40243L22.1539 17.2335L20.8425 17.972ZM23.7672 21.5159C23.4011 21.7281 22.9441 21.5962 22.7389 21.2426L21.597 19.2729L22.9081 18.5347L24.0406 20.4876C24.2489 20.8467 24.1259 21.3079 23.7672 21.5159ZM15.3931 43.766C14.7164 44.9329 13.3337 45.5066 12.029 45.1616L8.07939 44.1168C6.92969 43.8122 6.29531 42.5892 6.70609 41.4752C7.06948 40.4892 8.11307 39.9351 9.1312 40.1806C12.9903 41.1126 14.3722 41.6674 16.9669 41.0515L15.3931 43.766Z" fill="#67C117"/>
<path d="M32.9105 43.5905C33.3103 43.4785 33.5437 43.0634 33.4313 42.6636C31.9397 37.3407 25.2467 35.6146 21.3547 39.5066C18.5348 42.3268 18.5348 46.9155 21.3547 49.7353C22.7648 51.1454 24.6166 51.8507 26.4692 51.8503C29.7519 51.8499 32.5674 49.6613 33.4313 46.5787C33.5437 46.1785 33.3103 45.7638 32.9105 45.6514C32.5099 45.5394 32.0952 45.7728 31.9832 46.1726C30.8045 50.3791 25.5059 51.7594 22.4182 48.6717C20.1846 46.4385 20.1846 42.8038 22.4182 40.5702C25.5063 37.4821 30.8049 38.8636 31.9832 43.0693C32.0956 43.4695 32.5111 43.7025 32.9105 43.5905Z" fill="#67C117"/>
</g>
<defs>
<clipPath id="clip0">
<rect width="51.3264" height="51.3264" fill="white" transform="translate(0.766479 0.523987)"/>
</clipPath>
</defs>
</svg>
