<svg width="39" height="51" viewBox="0 0 39 51" fill="none" xmlns="http://www.w3.org/2000/svg">
<path d="M22.7383 30.5474L23.1151 30.2757C26.6155 27.747 28.7921 23.9939 29.1902 19.9495C34.4725 19.5599 38.6425 15.4366 38.6425 10.4241C38.6425 8.70781 38.1476 7.02444 37.2112 5.55576C36.991 5.2101 36.5111 5.09611 36.1396 5.3011C35.7681 5.50609 35.6457 5.95245 35.866 6.2981C36.6591 7.5422 37.0784 8.96887 37.0784 10.4241C37.0784 14.6131 33.6427 18.0697 29.2553 18.4831C29.2533 18.2536 29.2475 18.0237 29.2339 17.7933L29.233 17.7808L28.8217 12.4679C28.7923 12.0874 28.4517 11.7926 28.0417 11.7926H19.791C19.7091 11.3474 19.6642 10.8907 19.6642 10.4241C19.6642 5.95739 23.5702 2.32348 28.3713 2.32348C30.374 2.32348 32.329 2.97143 33.8766 4.14791C34.2114 4.40228 34.7041 4.356 34.9772 4.04488C35.2505 3.73366 35.2009 3.27537 34.8664 3.0211C33.0401 1.63285 30.7335 0.868286 28.3712 0.868286C22.7076 0.868286 18.0999 5.155 18.0999 10.4241C18.0999 10.8888 18.1365 11.3455 18.2057 11.7926H9.49705C9.06503 11.7926 8.71497 12.1184 8.71497 12.5202C8.71497 12.9221 9.06503 13.2478 9.49705 13.2478H18.5578C19.7841 16.9289 23.3423 19.6647 27.6187 19.9541C27.4743 21.271 27.1209 22.5522 26.5772 23.7577C25.6411 22.9001 23.9199 21.7453 21.4391 21.7453C20.8331 21.7453 20.2273 21.8408 19.6232 22.0018C19.6494 21.799 19.664 21.594 19.664 21.3866C19.664 18.5782 17.208 16.2935 14.1894 16.2935C11.1708 16.2935 8.71487 18.5782 8.71487 21.3866C8.71487 21.5094 8.72081 21.6307 8.72989 21.7514C6.40586 21.8371 4.79405 22.9181 3.886 23.755C3.06075 21.9241 2.67326 19.9189 2.79214 17.8788L3.15064 13.2479H6.12671C6.55873 13.2479 6.90879 12.9222 6.90879 12.5203C6.90879 12.1185 6.55873 11.7927 6.12671 11.7927H2.42279C2.01266 11.7927 1.6722 12.0875 1.64279 12.468L1.23152 17.7809L1.23059 17.7934C0.945805 22.6359 3.23312 27.3022 7.34926 30.2758L7.72611 30.5475C11.162 33.0212 12.8867 34.2629 12.8867 40.801V43.3881C12.8867 44.924 11.5444 46.1735 9.89466 46.1735H3.62604C1.83227 46.1734 0.372803 47.5316 0.372803 49.2012C0.372803 49.9388 1.01765 50.5389 1.81026 50.5389H19.5077C19.9397 50.5389 20.2897 50.2132 20.2897 49.8113C20.2897 49.4095 19.9397 49.0837 19.5077 49.0837H1.94165C2.00641 48.2713 2.73718 47.6286 3.62614 47.6286H9.89476C12.4071 47.6286 14.4509 45.7262 14.4509 43.388V40.8009C14.4509 36.7818 13.7459 34.4831 12.5264 32.8064C13.4435 33.0592 14.3532 33.194 15.2321 33.194C16.1057 33.194 17.0131 33.0644 17.9289 32.8189C16.715 34.4945 16.0135 36.7918 16.0135 40.801V43.3881C16.0135 45.7264 18.0575 47.6287 20.5697 47.6287H26.8383C27.7273 47.6287 28.4581 48.2714 28.5228 49.0838H22.8886C22.4566 49.0838 22.1066 49.4096 22.1066 49.8114C22.1066 50.2133 22.4566 50.539 22.8886 50.539H28.6542C29.4469 50.539 30.0917 49.9389 30.0917 49.2013C30.0917 47.5317 28.6322 46.1735 26.8383 46.1735H20.5697C18.9199 46.1735 17.5777 44.9239 17.5777 43.3881V40.801C17.5777 34.2628 19.3023 33.0211 22.7383 30.5474V30.5474ZM20.2108 13.2478H27.3137L27.6722 17.8787C27.6843 18.0855 27.6894 18.2917 27.6912 18.4976C24.2537 18.2491 21.3698 16.1374 20.2108 13.2478ZM14.1895 17.7485C16.3458 17.7485 18.0999 19.3805 18.0999 21.3865C18.0999 21.8185 18.0192 22.2371 17.8622 22.6351C17.0026 23.0122 16.15 23.4676 15.3096 23.9167C14.6211 24.2846 13.9522 24.642 13.3189 24.9332C11.8927 24.6342 10.7956 23.6344 10.4198 22.362C10.4153 22.3422 10.4101 22.3226 10.4038 22.3034C10.3228 22.0099 10.279 21.7028 10.279 21.3865C10.2791 19.3805 12.0333 17.7485 14.1895 17.7485V17.7485ZM11.133 25.618C8.81383 25.9339 6.30096 25.243 4.98738 24.793C5.7194 24.1241 7.08158 23.2008 9.02582 23.2008C9.04042 23.2008 9.05565 23.202 9.07024 23.2022C9.47202 24.1903 10.1948 25.0337 11.133 25.618V25.618ZM9.13333 29.7209C8.98568 29.614 8.3086 29.1263 8.3086 29.1263C7.25666 28.3664 6.33766 27.4835 5.56591 26.5094C6.76801 26.8471 8.29974 27.1558 9.88434 27.1558C10.5557 27.1558 11.2363 27.1004 11.9052 26.9684C12.5073 26.8495 13.1233 26.6304 13.7544 26.3534C13.7569 26.3523 13.7593 26.3512 13.7618 26.3501C14.5151 26.019 15.2898 25.6055 16.0886 25.1786C16.9761 24.7043 17.8783 24.2224 18.7611 23.8528C18.7824 23.8448 18.8033 23.8362 18.8238 23.8265C19.7291 23.4527 20.6132 23.2005 21.4391 23.2005C23.7696 23.2005 25.252 24.5085 25.8412 25.1541C24.9204 26.6718 23.677 28.0275 22.1559 29.1264C22.1559 29.1264 21.4785 29.6144 21.3307 29.7214C19.3425 30.9959 17.1211 31.7389 15.2321 31.7389C13.3432 31.7387 11.1217 30.9956 9.13333 29.7209V29.7209Z" fill="#67C117"/>
<path d="M27.6934 4.55472V6.10692C27.6934 6.50875 28.0435 6.83452 28.4755 6.83452C28.9075 6.83452 29.2576 6.50875 29.2576 6.10692V4.55472C29.2576 4.15289 28.9075 3.82712 28.4755 3.82712C28.0435 3.82712 27.6934 4.15289 27.6934 4.55472Z" fill="#67C117"/>
<path d="M26.0303 7.44112C26.1629 7.44112 26.2975 7.40969 26.4206 7.34352C26.7946 7.14261 26.9228 6.69761 26.7068 6.34963L25.8726 5.00541C25.6568 4.65733 25.1781 4.5381 24.8043 4.73911C24.4303 4.94003 24.3021 5.38502 24.5181 5.73301L25.3523 7.07722C25.4971 7.31064 25.76 7.44112 26.0303 7.44112Z" fill="#67C117"/>
<path d="M31.0876 16.319C31.2324 16.5524 31.4953 16.6829 31.7656 16.6829C31.8982 16.6829 32.0328 16.6515 32.1559 16.5853C32.5299 16.3844 32.6581 15.9394 32.4421 15.5914L31.6079 14.2472C31.3919 13.8992 30.9134 13.78 30.5396 13.9809C30.1655 14.1818 30.0374 14.6268 30.2533 14.9748L31.0876 16.319Z" fill="#67C117"/>
<path d="M24.9145 8.74017C25.1304 8.39219 25.0023 7.94719 24.6282 7.74627L23.1834 6.97017C22.809 6.76916 22.3309 6.88848 22.115 7.23647C21.8991 7.58446 22.0272 8.02945 22.4013 8.23037L23.8461 9.00647C23.9694 9.07263 24.1038 9.10407 24.2365 9.10407C24.5066 9.10416 24.7696 8.97358 24.9145 8.74017Z" fill="#67C117"/>
<path d="M34.1702 14.4399C34.4405 14.4399 34.7033 14.3093 34.8482 14.076C35.0641 13.728 34.936 13.283 34.5619 13.0821L33.1171 12.306C32.7428 12.1049 32.2646 12.2243 32.0488 12.5723C31.8328 12.9202 31.961 13.3652 32.335 13.5662L33.7799 14.3423C33.9031 14.4083 34.0375 14.4399 34.1702 14.4399Z" fill="#67C117"/>
<path d="M23.5787 9.9227H21.9103C21.4782 9.9227 21.1282 10.2485 21.1282 10.6503C21.1282 11.0521 21.4782 11.3779 21.9103 11.3779H23.5787C24.0107 11.3779 24.3608 11.0521 24.3608 10.6503C24.3608 10.2485 24.0107 9.9227 23.5787 9.9227Z" fill="#67C117"/>
<path d="M35.8312 10.6503C35.8312 10.2485 35.4812 9.9227 35.0491 9.9227H33.3807C32.9487 9.9227 32.5986 10.2485 32.5986 10.6503C32.5986 11.0521 32.9487 11.3779 33.3807 11.3779H35.0491C35.4812 11.3779 35.8312 11.0521 35.8312 10.6503Z" fill="#67C117"/>
<path d="M32.042 8.72994C32.1868 8.96335 32.4497 9.09384 32.72 9.09384C32.8526 9.09384 32.9872 9.0624 33.1103 8.99624L34.5552 8.22014C34.9292 8.01922 35.0574 7.57422 34.8414 7.22624C34.6255 6.87816 34.147 6.75893 33.7731 6.95994L32.3282 7.73604C31.9542 7.93696 31.826 8.38195 32.042 8.72994V8.72994Z" fill="#67C117"/>
<path d="M32.1442 4.72147C31.7703 4.52046 31.2918 4.63969 31.0759 4.98777L30.2417 6.33199C30.0257 6.67997 30.1539 7.12497 30.5279 7.32588C30.6511 7.39205 30.7856 7.42348 30.9182 7.42348C31.1885 7.42348 31.4514 7.293 31.5962 7.05958L32.4305 5.71537C32.6464 5.36739 32.5183 4.92239 32.1442 4.72147Z" fill="#67C117"/>
</svg>
