<svg width="42" height="44" viewBox="0 0 42 44" fill="none" xmlns="http://www.w3.org/2000/svg">
<path d="M11.1332 0.179932C10.7239 0.179932 10.3923 0.462402 10.3923 0.810821V9.64353H8.43377V0.810821C8.43377 0.462402 8.10214 0.179932 7.69285 0.179932C7.28357 0.179932 6.95193 0.462402 6.95193 0.810821V9.64353H5.0371V0.810821C5.0371 0.462402 4.70547 0.179932 4.29619 0.179932C3.8869 0.179932 3.55527 0.462402 3.55527 0.810821V9.64353H1.59292V0.810821C1.59292 0.462402 1.26129 0.179932 0.852002 0.179932C0.442719 0.179932 0.111084 0.462402 0.111084 0.810821V13.7994C0.111084 15.1413 0.960275 16.3896 2.32712 17.0572L3.55527 17.6572V21.5265C3.06043 22.0191 2.78195 22.6532 2.78195 23.3057V23.9516C2.78195 24.343 2.94119 24.7033 3.20723 24.988C2.9411 25.2728 2.78195 25.6331 2.78195 26.0245V35.8938C2.78195 36.2422 3.11358 36.5247 3.52287 36.5247C3.93215 36.5247 4.26378 36.2422 4.26378 35.8938V26.0244C4.26378 25.8008 4.47746 25.6188 4.74005 25.6188H7.24514C7.50772 25.6188 7.7213 25.8008 7.7213 26.0244V40.4943C7.7213 41.306 6.94571 41.9664 5.99249 41.9664C5.03928 41.9664 4.26368 41.306 4.26368 40.4943V38.8312C4.26368 38.4828 3.93205 38.2003 3.52277 38.2003C3.11348 38.2003 2.78185 38.4828 2.78185 38.8312V40.4943C2.78185 42.0017 4.22209 43.2282 5.99249 43.2282C7.76289 43.2282 9.20314 42.0017 9.20314 40.4943V26.0244C9.20314 25.633 9.04389 25.2727 8.77785 24.9879C9.04399 24.7032 9.20314 24.3429 9.20314 23.9515V23.3056C9.20314 22.655 8.92594 22.0222 8.43367 21.5302V17.6569L9.65984 17.0573C11.0255 16.3894 11.8739 15.1414 11.8739 13.8004L11.8741 0.810821C11.8741 0.462402 11.5424 0.179932 11.1332 0.179932V0.179932ZM10.3922 13.8004C10.3922 14.6909 9.82877 15.5196 8.92189 15.9631L7.32378 16.7447C7.0937 16.8572 6.95183 17.0658 6.95183 17.2918V21.7803C6.95183 21.9533 7.03531 22.1187 7.18261 22.2378C7.53005 22.5186 7.7213 22.8979 7.7213 23.3056V23.9515C7.7213 24.1751 7.50772 24.3571 7.24514 24.3571H4.74005C4.47746 24.3571 4.26378 24.1751 4.26378 23.9515V23.3056C4.26378 22.8968 4.45603 22.5168 4.80515 22.2357C4.95323 22.1165 5.0371 21.9507 5.0371 21.7772V17.2918C5.0371 17.0657 4.89505 16.857 4.66487 16.7446L3.06448 15.9628C2.15681 15.5195 1.59292 14.6905 1.59292 13.7995V10.9054H10.3921V13.8004H10.3922Z" fill="#67C117"/>
<path d="M25.3062 10.7568C25.3062 12.0404 24.9753 13.0398 24.3747 13.5709C23.8017 14.0774 22.9264 14.1839 22.2929 14.1839C21.6595 14.1839 20.7841 14.0775 20.2111 13.5708C19.6106 13.0398 19.2798 12.0405 19.2798 10.7568C19.2798 10.4084 18.9481 10.1259 18.5388 10.1259C18.1295 10.1259 17.7979 10.4084 17.7979 10.7568C17.7979 12.392 18.2633 13.6677 19.1438 14.4461C20.078 15.2722 21.372 15.4455 22.2929 15.4455C23.2138 15.4455 24.5078 15.2721 25.4421 14.4461C26.3226 13.6676 26.788 12.3919 26.788 10.7568C26.788 10.4084 26.4564 10.1259 26.0471 10.1259C25.6378 10.1259 25.3062 10.4084 25.3062 10.7568V10.7568Z" fill="#67C117"/>
<path d="M22.293 0.179626C20.2793 0.179626 18.3608 1.45554 16.8908 3.77225C15.603 5.80203 14.8342 8.41308 14.8342 10.7568C14.8342 14.3471 16.6548 16.8365 19.8556 17.6709V21.5262C19.3608 22.0188 19.0824 22.6529 19.0824 23.3053V23.9512C19.0824 24.3425 19.2415 24.7028 19.5076 24.9876C19.2415 25.2723 19.0823 25.6326 19.0823 26.024V40.4939C19.0823 42.0013 20.5226 43.2278 22.293 43.2278C24.0633 43.2278 25.5036 42.0013 25.5036 40.4939V31.1473C25.5036 30.7989 25.1719 30.5164 24.7626 30.5164C24.3534 30.5164 24.0217 30.7989 24.0217 31.1473V40.494C24.0217 41.3057 23.2461 41.9661 22.2929 41.9661C21.3397 41.9661 20.5641 41.3057 20.5641 40.494V26.0241C20.5641 25.8005 20.7778 25.6185 21.0404 25.6185H23.5455C23.808 25.6185 24.0216 25.8005 24.0216 26.0241V28.2384C24.0216 28.5868 24.3533 28.8693 24.7625 28.8693C25.1718 28.8693 25.5035 28.5868 25.5035 28.2384V26.0241C25.5035 25.6328 25.3443 25.2725 25.0782 24.9877C25.3443 24.703 25.5036 24.3427 25.5036 23.9513V23.3054C25.5036 22.6548 25.2264 22.022 24.734 21.5299V17.67C27.9323 16.8347 29.7515 14.3455 29.7515 10.7569C29.7515 8.41316 28.9827 5.80212 27.6949 3.77233C26.225 1.45554 24.3066 0.179626 22.293 0.179626V0.179626ZM23.8317 16.5688C23.493 16.6332 23.2522 16.8891 23.2522 17.1845V21.78C23.2522 21.9531 23.3357 22.1184 23.483 22.2376C23.8306 22.5184 24.0218 22.8976 24.0218 23.3054V23.9513C24.0218 24.1749 23.8081 24.3568 23.5456 24.3568H21.0405C20.7779 24.3568 20.5643 24.1749 20.5643 23.9513V23.3054C20.5643 22.8965 20.7565 22.5166 21.1057 22.2354C21.2536 22.1162 21.3375 21.9504 21.3375 21.777V17.1853C21.3375 16.8897 21.0966 16.6337 20.7577 16.5695C17.8935 16.0263 16.3162 13.962 16.3162 10.7569C16.3162 8.61286 17.0184 6.22608 18.1947 4.3721C19.3763 2.50954 20.87 1.44141 22.293 1.44141C23.716 1.44141 25.2096 2.50954 26.3912 4.37202C27.5675 6.22599 28.2697 8.61286 28.2697 10.7568C28.2697 13.9606 26.6936 16.0247 23.8317 16.5688V16.5688Z" fill="#67C117"/>
<path d="M41.2403 26.67C41.2403 26.0194 40.9631 25.3867 40.4708 24.8946V9.22182C40.4708 8.8734 40.1391 8.59093 39.7299 8.59093C39.3206 8.59093 38.9889 8.8734 38.9889 9.22182V25.1447C38.9889 25.3178 39.0724 25.4831 39.2198 25.6022C39.5673 25.883 39.7585 26.2622 39.7585 26.67V27.3159C39.7585 27.5395 39.5449 27.7214 39.2823 27.7214H36.7772C36.5147 27.7214 36.301 27.5395 36.301 27.3159V26.67C36.301 26.2611 36.4932 25.8812 36.8424 25.6001C36.9904 25.4809 37.0743 25.3151 37.0743 25.1416V22.1695C37.0743 21.8211 36.7427 21.5386 36.3334 21.5386H34.5994V6.72157C34.5994 4.349 36.3998 2.30567 38.989 1.60959V6.34017C38.989 6.68859 39.3207 6.97106 39.73 6.97106C40.1392 6.97106 40.4709 6.68859 40.4709 6.34017V0.81055C40.4709 0.6249 40.3749 0.448756 40.2085 0.328802C40.0419 0.208933 39.8218 0.157537 39.6071 0.188408C35.8469 0.727104 33.1177 3.47467 33.1177 6.72157V22.1697C33.1177 22.5181 33.4493 22.8006 33.8586 22.8006H35.5926V24.8909C35.0977 25.3835 34.8192 26.0177 34.8192 26.6701V27.3161C34.8192 27.7075 34.9785 28.0678 35.2445 28.3525C34.9784 28.6372 34.8192 28.9975 34.8192 29.3889V40.4941C34.8192 42.0015 36.2595 43.228 38.0299 43.228C39.8003 43.228 41.2405 42.0015 41.2405 40.4941V29.3888C41.2405 28.9974 41.0813 28.6372 40.8153 28.3524C41.0814 28.0677 41.2405 27.7074 41.2405 27.316V26.67H41.2403ZM39.7585 40.494C39.7585 41.3057 38.9829 41.9661 38.0297 41.9661C37.0765 41.9661 36.3009 41.3057 36.3009 40.494V29.3888C36.3009 29.1653 36.5145 28.9833 36.7771 28.9833H39.2822C39.5448 28.9833 39.7584 29.1653 39.7584 29.3888V40.494H39.7585Z" fill="#67C117"/>
</svg>
