<svg width="181" height="190" viewBox="0 0 181 190" fill="none" xmlns="http://www.w3.org/2000/svg">
<path d="M43.1424 162.308H41.3962V148.309H43.1424V155.11H43.2976L49.4289 148.309H51.6214L46.0237 154.353L52.1355 162.308H49.8751L44.8207 155.566L43.1424 157.419V162.308ZM54.3183 162.308V151.85H55.9869V162.308H54.3183ZM55.9772 149.386C55.7509 149.613 55.476 149.726 55.1526 149.726C54.8293 149.726 54.5544 149.613 54.328 149.386C54.1017 149.153 53.9885 148.879 53.9885 148.562C53.9885 148.245 54.1017 147.973 54.328 147.747C54.5544 147.514 54.8293 147.398 55.1526 147.398C55.476 147.398 55.7509 147.514 55.9772 147.747C56.2036 147.973 56.3168 148.245 56.3168 148.562C56.3168 148.879 56.2036 149.153 55.9772 149.386ZM59.8675 149.144H61.5361V151.85H63.8644V153.247H61.5361V159.165C61.5361 159.78 61.659 160.226 61.9047 160.504C62.1505 160.782 62.545 160.921 63.0883 160.921C63.3276 160.921 63.5863 160.908 63.8644 160.882V162.289C63.4957 162.354 63.1691 162.386 62.8846 162.386C61.8045 162.386 61.0316 162.169 60.566 161.736C60.1003 161.303 59.8675 160.588 59.8675 159.592V153.247H58.1794V151.85H59.8675V149.144ZM74.8851 155.052H73.197C73.0548 154.502 72.7476 154.053 72.2754 153.703C71.8098 153.348 71.218 153.17 70.5001 153.17C69.5623 153.17 68.8153 153.519 68.2591 154.218C67.7093 154.916 67.4345 155.857 67.4345 157.041C67.4345 158.244 67.7126 159.204 68.2688 159.922C68.825 160.633 69.5688 160.989 70.5001 160.989C71.205 160.989 71.7904 160.831 72.256 160.514C72.7282 160.197 73.0418 159.744 73.197 159.155H74.8851C74.7299 160.145 74.2674 160.95 73.4978 161.571C72.7282 162.186 71.7322 162.493 70.5098 162.493C69.0417 162.493 67.8743 162.001 67.0076 161.018C66.141 160.029 65.7076 158.703 65.7076 157.041C65.7076 155.411 66.141 154.108 67.0076 153.131C67.8743 152.154 69.0384 151.666 70.5001 151.666C71.7224 151.666 72.7184 151.986 73.4881 152.627C74.2642 153.267 74.7299 154.075 74.8851 155.052ZM77.4462 162.308V147.698H79.1148V153.5H79.2701C79.5352 152.911 79.9394 152.458 80.4827 152.141C81.0325 151.825 81.7019 151.666 82.4909 151.666C83.6033 151.666 84.4829 152.009 85.1296 152.694C85.7764 153.374 86.0998 154.321 86.0998 155.537V162.308H84.4312V155.944C84.4312 154.095 83.6259 153.17 82.0155 153.17C81.0971 153.17 80.3825 153.438 79.8715 153.975C79.3671 154.505 79.1148 155.22 79.1148 156.119V162.308H77.4462ZM93.3175 153.141C92.4832 153.141 91.7977 153.422 91.2609 153.985C90.7241 154.547 90.4233 155.291 90.3586 156.216H96.1212C96.1018 155.291 95.8366 154.547 95.3257 153.985C94.8148 153.422 94.1454 153.141 93.3175 153.141ZM96.0727 159.602H97.7413C97.4891 160.507 96.9749 161.215 96.1988 161.726C95.4292 162.237 94.4752 162.493 93.3369 162.493C91.8882 162.493 90.7402 162.008 89.893 161.038C89.0457 160.061 88.6221 158.745 88.6221 157.089C88.6221 155.44 89.049 154.124 89.9027 153.141C90.7564 152.158 91.9012 151.666 93.3369 151.666C94.7469 151.666 95.8561 152.135 96.6645 153.073C97.4729 154.011 97.8772 155.294 97.8772 156.924V157.564H90.3586V157.642C90.4039 158.677 90.695 159.498 91.2318 160.106C91.775 160.714 92.4897 161.018 93.3758 161.018C94.7275 161.018 95.6265 160.546 96.0727 159.602ZM100.497 162.308V151.85H102.088V153.5H102.243C102.799 152.277 103.847 151.666 105.386 151.666C106.557 151.666 107.459 152.002 108.093 152.675C108.726 153.341 109.043 154.295 109.043 155.537V162.308H107.375V155.944C107.375 155.007 107.171 154.311 106.764 153.859C106.363 153.399 105.745 153.17 104.911 153.17C104.07 153.17 103.4 153.435 102.902 153.965C102.411 154.489 102.165 155.207 102.165 156.119V162.308H100.497Z" fill="#131010"/>
<g filter="url(#filter0_d)">
<rect x="26" y="39" width="105" height="89.4072" rx="11.5898" fill="white"/>
</g>
<path d="M68.1332 62.1799C67.7239 62.1799 67.3923 62.4624 67.3923 62.8108V71.6435H65.4338V62.8108C65.4338 62.4624 65.1021 62.1799 64.6929 62.1799C64.2836 62.1799 63.9519 62.4624 63.9519 62.8108V71.6435H62.0371V62.8108C62.0371 62.4624 61.7055 62.1799 61.2962 62.1799C60.8869 62.1799 60.5553 62.4624 60.5553 62.8108V71.6435H58.5929V62.8108C58.5929 62.4624 58.2613 62.1799 57.852 62.1799C57.4427 62.1799 57.1111 62.4624 57.1111 62.8108V75.7994C57.1111 77.1413 57.9603 78.3896 59.3271 79.0572L60.5553 79.6572V83.5265C60.0604 84.0191 59.7819 84.6532 59.7819 85.3057V85.9516C59.7819 86.343 59.9412 86.7033 60.2072 86.988C59.9411 87.2728 59.7819 87.6331 59.7819 88.0245V97.8938C59.7819 98.2422 60.1136 98.5247 60.5229 98.5247C60.9321 98.5247 61.2638 98.2422 61.2638 97.8938V88.0244C61.2638 87.8008 61.4775 87.6188 61.74 87.6188H64.2451C64.5077 87.6188 64.7213 87.8008 64.7213 88.0244V102.494C64.7213 103.306 63.9457 103.966 62.9925 103.966C62.0393 103.966 61.2637 103.306 61.2637 102.494V100.831C61.2637 100.483 60.932 100.2 60.5228 100.2C60.1135 100.2 59.7818 100.483 59.7818 100.831V102.494C59.7818 104.002 61.2221 105.228 62.9925 105.228C64.7629 105.228 66.2031 104.002 66.2031 102.494V88.0244C66.2031 87.633 66.0439 87.2727 65.7779 86.9879C66.044 86.7032 66.2031 86.3429 66.2031 85.9515V85.3056C66.2031 84.655 65.9259 84.0222 65.4337 83.5302V79.6569L66.6598 79.0573C68.0255 78.3894 68.8739 77.1414 68.8739 75.8004L68.8741 62.8108C68.8741 62.4624 68.5424 62.1799 68.1332 62.1799V62.1799ZM67.3922 75.8004C67.3922 76.6909 66.8288 77.5196 65.9219 77.9631L64.3238 78.7447C64.0937 78.8572 63.9518 79.0658 63.9518 79.2918V83.7803C63.9518 83.9533 64.0353 84.1187 64.1826 84.2378C64.53 84.5186 64.7213 84.8979 64.7213 85.3056V85.9515C64.7213 86.1751 64.5077 86.3571 64.2451 86.3571H61.74C61.4775 86.3571 61.2638 86.1751 61.2638 85.9515V85.3056C61.2638 84.8968 61.456 84.5168 61.8051 84.2357C61.9532 84.1165 62.0371 83.9507 62.0371 83.7772V79.2918C62.0371 79.0657 61.895 78.857 61.6649 78.7446L60.0645 77.9628C59.1568 77.5195 58.5929 76.6905 58.5929 75.7995V72.9054H67.3921V75.8004H67.3922Z" fill="#67C117"/>
<path d="M82.3062 72.7568C82.3062 74.0404 81.9753 75.0398 81.3747 75.5709C80.8017 76.0774 79.9264 76.1839 79.2929 76.1839C78.6595 76.1839 77.7841 76.0775 77.2111 75.5708C76.6106 75.0398 76.2798 74.0405 76.2798 72.7568C76.2798 72.4084 75.9481 72.1259 75.5388 72.1259C75.1295 72.1259 74.7979 72.4084 74.7979 72.7568C74.7979 74.392 75.2633 75.6677 76.1438 76.4461C77.078 77.2722 78.372 77.4455 79.2929 77.4455C80.2138 77.4455 81.5078 77.2721 82.4421 76.4461C83.3226 75.6676 83.788 74.3919 83.788 72.7568C83.788 72.4084 83.4564 72.1259 83.0471 72.1259C82.6378 72.1259 82.3062 72.4084 82.3062 72.7568V72.7568Z" fill="#67C117"/>
<path d="M79.293 62.1796C77.2793 62.1796 75.3608 63.4555 73.8908 65.7722C72.603 67.802 71.8342 70.4131 71.8342 72.7568C71.8342 76.3471 73.6548 78.8365 76.8556 79.6709V83.5262C76.3608 84.0188 76.0824 84.6529 76.0824 85.3053V85.9512C76.0824 86.3425 76.2415 86.7028 76.5076 86.9876C76.2415 87.2723 76.0823 87.6326 76.0823 88.024V102.494C76.0823 104.001 77.5226 105.228 79.293 105.228C81.0633 105.228 82.5036 104.001 82.5036 102.494V93.1473C82.5036 92.7989 82.1719 92.5164 81.7626 92.5164C81.3534 92.5164 81.0217 92.7989 81.0217 93.1473V102.494C81.0217 103.306 80.2461 103.966 79.2929 103.966C78.3397 103.966 77.5641 103.306 77.5641 102.494V88.0241C77.5641 87.8005 77.7778 87.6185 78.0404 87.6185H80.5455C80.808 87.6185 81.0216 87.8005 81.0216 88.0241V90.2384C81.0216 90.5868 81.3533 90.8693 81.7625 90.8693C82.1718 90.8693 82.5035 90.5868 82.5035 90.2384V88.0241C82.5035 87.6328 82.3443 87.2725 82.0782 86.9877C82.3443 86.703 82.5036 86.3427 82.5036 85.9513V85.3054C82.5036 84.6548 82.2264 84.022 81.734 83.5299V79.67C84.9323 78.8347 86.7515 76.3455 86.7515 72.7569C86.7515 70.4132 85.9827 67.8021 84.6949 65.7723C83.225 63.4555 81.3066 62.1796 79.293 62.1796V62.1796ZM80.8317 78.5688C80.493 78.6332 80.2522 78.8891 80.2522 79.1845V83.78C80.2522 83.9531 80.3357 84.1184 80.483 84.2376C80.8306 84.5184 81.0218 84.8976 81.0218 85.3054V85.9513C81.0218 86.1749 80.8081 86.3568 80.5456 86.3568H78.0405C77.7779 86.3568 77.5643 86.1749 77.5643 85.9513V85.3054C77.5643 84.8965 77.7565 84.5166 78.1057 84.2354C78.2536 84.1162 78.3375 83.9504 78.3375 83.777V79.1853C78.3375 78.8897 78.0966 78.6337 77.7577 78.5695C74.8935 78.0263 73.3162 75.962 73.3162 72.7569C73.3162 70.6129 74.0184 68.2261 75.1947 66.3721C76.3763 64.5095 77.87 63.4414 79.293 63.4414C80.716 63.4414 82.2096 64.5095 83.3912 66.372C84.5675 68.226 85.2697 70.6129 85.2697 72.7568C85.2697 75.9606 83.6936 78.0247 80.8317 78.5688V78.5688Z" fill="#67C117"/>
<path d="M98.2403 88.67C98.2403 88.0194 97.9631 87.3867 97.4708 86.8946V71.2218C97.4708 70.8734 97.1391 70.5909 96.7299 70.5909C96.3206 70.5909 95.9889 70.8734 95.9889 71.2218V87.1447C95.9889 87.3178 96.0724 87.4831 96.2198 87.6022C96.5673 87.883 96.7585 88.2622 96.7585 88.67V89.3159C96.7585 89.5395 96.5449 89.7214 96.2823 89.7214H93.7772C93.5147 89.7214 93.301 89.5395 93.301 89.3159V88.67C93.301 88.2611 93.4932 87.8812 93.8424 87.6001C93.9904 87.4809 94.0743 87.3151 94.0743 87.1416V84.1695C94.0743 83.8211 93.7427 83.5386 93.3334 83.5386H91.5994V68.7216C91.5994 66.349 93.3998 64.3057 95.989 63.6096V68.3402C95.989 68.6886 96.3207 68.9711 96.73 68.9711C97.1392 68.9711 97.4709 68.6886 97.4709 68.3402V62.8105C97.4709 62.6249 97.3749 62.4488 97.2085 62.3288C97.0419 62.2089 96.8218 62.1575 96.6071 62.1884C92.8469 62.7271 90.1177 65.4747 90.1177 68.7216V84.1697C90.1177 84.5181 90.4493 84.8006 90.8586 84.8006H92.5926V86.8909C92.0977 87.3835 91.8192 88.0177 91.8192 88.6701V89.3161C91.8192 89.7075 91.9785 90.0678 92.2445 90.3525C91.9784 90.6372 91.8192 90.9975 91.8192 91.3889V102.494C91.8192 104.002 93.2595 105.228 95.0299 105.228C96.8003 105.228 98.2405 104.002 98.2405 102.494V91.3888C98.2405 90.9974 98.0813 90.6372 97.8153 90.3524C98.0814 90.0677 98.2405 89.7074 98.2405 89.316V88.67H98.2403ZM96.7585 102.494C96.7585 103.306 95.9829 103.966 95.0297 103.966C94.0765 103.966 93.3009 103.306 93.3009 102.494V91.3888C93.3009 91.1653 93.5145 90.9833 93.7771 90.9833H96.2822C96.5448 90.9833 96.7584 91.1653 96.7584 91.3888V102.494H96.7585Z" fill="#67C117"/>
<defs>
<filter id="filter0_d" x="-23.6707" y="0.91916" width="204.341" height="188.749" filterUnits="userSpaceOnUse" color-interpolation-filters="sRGB">
<feFlood flood-opacity="0" result="BackgroundImageFix"/>
<feColorMatrix in="SourceAlpha" type="matrix" values="0 0 0 0 0 0 0 0 0 0 0 0 0 0 0 0 0 0 127 0"/>
<feOffset dy="11.5898"/>
<feGaussianBlur stdDeviation="24.8353"/>
<feColorMatrix type="matrix" values="0 0 0 0 0.4 0 0 0 0 0.678431 0 0 0 0 0.152941 0 0 0 0.17 0"/>
<feBlend mode="normal" in2="BackgroundImageFix" result="effect1_dropShadow"/>
<feBlend mode="normal" in="SourceGraphic" in2="effect1_dropShadow" result="shape"/>
</filter>
</defs>
</svg>
