<svg width="57" height="57" viewBox="0 0 57 57" fill="none" xmlns="http://www.w3.org/2000/svg">
<g clip-path="url(#clip0)">
<path d="M55.9578 27.2131C55.2502 26.2859 54.2217 25.7045 53.083 25.5729L49.3108 19.1012L48.7117 10.027C48.6436 8.99467 48.0436 8.10486 47.1067 7.64715C46.17 7.18943 45.0921 7.25914 44.2235 7.83395L37.2853 12.4243C36.9364 12.0762 36.498 11.8174 36.006 11.6803C35.2053 11.4574 34.3473 11.5903 33.6476 12.0444C33.27 11.5668 32.7425 11.2165 32.1229 11.0521L20.0478 7.84725C19.039 7.5792 17.9955 7.85627 17.2569 8.58786C16.5181 9.31957 16.2386 10.3529 16.509 11.3524L16.8113 12.4699L11.3343 8.86295C10.4643 8.29001 9.38631 8.22229 8.45055 8.68231C7.5148 9.142 6.91683 10.0329 6.85089 11.0655L6.45273 17.3038L6.38535 17.286C5.37644 17.0181 4.33313 17.2951 3.5944 18.0266C2.85568 18.7583 2.57617 19.7916 2.84658 20.7911L4.13321 25.5476C2.84436 25.5826 1.66195 26.1844 0.874834 27.2144C0.0539676 28.2885 -0.204891 29.6489 0.164748 30.9466C1.6826 36.2759 5.78327 40.9225 11.7348 44.0741C11.8609 45.6449 12.5614 47.1012 13.7263 48.2008C14.9512 49.3572 16.5539 49.9942 18.2389 49.9942H38.5974C40.2824 49.9942 41.885 49.3572 43.1101 48.2008C44.2746 47.1014 44.975 45.6456 45.1015 44.0756C51.0448 40.9289 55.1428 36.2891 56.6657 30.9672C57.0396 29.6608 56.7815 28.2925 55.9578 27.2131ZM47.728 19.7968L51.0781 25.5441H45.2904C45.4866 25.3877 45.6123 25.1484 45.6123 24.8796C45.6121 24.4086 45.2266 24.0268 44.751 24.0268C44.2755 24.0268 43.89 24.4086 43.89 24.8797C43.89 25.1485 44.0159 25.3878 44.212 25.5442H43.2973L44.2202 22.2353C44.4683 21.3456 44.28 20.4216 43.7034 19.7002C43.4281 19.356 43.0803 19.084 42.6924 18.8973L43.9372 16.7617C44.1482 16.3998 44.526 16.1837 44.9481 16.1837C45.3701 16.1837 45.7479 16.3998 45.959 16.7617L47.7258 19.7928C47.7265 19.7942 47.7271 19.7954 47.728 19.7968ZM45.1802 9.25228C45.531 9.02007 45.9665 8.9917 46.3449 9.17686C46.7233 9.36179 46.9657 9.7211 46.9932 10.1381L47.3651 15.7736C46.8301 14.9597 45.9384 14.4779 44.9477 14.4779C43.9031 14.4779 42.9677 15.0128 42.4454 15.9089L40.8332 18.6746C40.7916 18.6835 40.7498 18.6925 40.7086 18.7032L38.4524 19.2835L38.1138 14.2473C38.1072 14.1475 38.0941 14.049 38.0773 13.9514L45.1802 9.25228ZM37.8882 21.1909C37.8899 21.1905 37.8917 21.19 37.8935 21.1896L41.1418 20.3541C41.226 20.3325 41.3133 20.3197 41.4005 20.3164C41.7638 20.3045 42.1204 20.4681 42.3531 20.7594C42.4895 20.9297 42.6975 21.2891 42.5602 21.7811L41.5106 25.5442H39.8941C40.0902 25.3878 40.2159 25.1485 40.2159 24.8798C40.2159 24.4088 39.8304 24.0269 39.3549 24.0269C38.8793 24.0269 38.4938 24.4088 38.4938 24.8798C38.4938 25.1486 38.6197 25.388 38.8158 25.5443H31.3124C31.3012 25.0738 31.1715 24.6073 30.9237 24.1822L30.3156 23.1387L37.8882 21.1909ZM33.7938 13.9992C33.7954 13.9982 33.7971 13.997 33.7986 13.996L34.5813 13.4768C34.8701 13.2852 35.2103 13.2303 35.5396 13.322C35.8749 13.4155 36.1486 13.6436 36.2904 13.9482C36.3503 14.0769 36.3856 14.2157 36.3954 14.3605L36.7557 19.7199L29.4221 21.6062L27.4434 18.2114L33.7938 13.9992ZM29.5896 25.5442H14.7521C14.7612 25.3888 14.8042 25.2156 14.9094 25.0349L21.1599 14.3114C21.371 13.9494 21.7488 13.7333 22.1708 13.7333C22.5929 13.7333 22.9707 13.9494 23.1817 14.3114L29.4323 25.0349C29.5374 25.2155 29.5805 25.3887 29.5896 25.5442ZM18.4746 9.794C18.7729 9.49835 19.1943 9.38675 19.602 9.49483L31.6771 12.6996C31.8852 12.7548 32.0645 12.8585 32.2058 12.9998L26.5805 16.7312L24.6731 13.4588C24.1508 12.5627 23.2153 12.0277 22.1707 12.0277C21.1262 12.0277 20.1907 12.5626 19.6684 13.4588L19.2924 14.1039L18.9806 13.8985L18.1724 10.911C18.0632 10.507 18.1762 10.0894 18.4746 9.794ZM8.56944 11.1732C8.59608 10.756 8.83762 10.3962 9.2157 10.2105C9.59366 10.0247 10.0291 10.0518 10.3806 10.2836L18.4296 15.584L15.9567 19.8264L8.14918 17.7544L8.56944 11.1732ZM4.8121 19.2327C5.11048 18.9371 5.53196 18.8255 5.93967 18.9336L7.01673 19.2194C7.01862 19.2199 7.02051 19.2204 7.02239 19.2209L15.0655 21.3555L13.418 24.182C13.1703 24.6071 13.0406 25.0737 13.0294 25.5442H5.91525L4.50995 20.3495C4.40073 19.9457 4.51373 19.5282 4.8121 19.2327ZM55.0089 30.502C53.6098 35.3913 49.7875 39.6753 44.2277 42.6022H20.3799C19.9044 42.6022 19.5189 42.984 19.5189 43.4551C19.5189 43.9262 19.9044 44.308 20.3799 44.308H43.3377C42.9672 46.5493 40.9544 48.2882 38.5976 48.2882H18.239C15.882 48.2882 13.869 46.5492 13.4989 44.308H16.9357C17.4113 44.308 17.7968 43.9262 17.7968 43.4551C17.7968 42.984 17.4113 42.6022 16.9357 42.6022H12.6114C7.04237 39.6709 3.21699 35.3799 1.82235 30.4834C1.60057 29.7044 1.75564 28.8882 2.24805 28.2438C2.73069 27.6121 3.46076 27.2499 4.25132 27.2499H5.25134C5.25223 27.2499 5.25323 27.2502 5.25412 27.2502C5.25523 27.2502 5.25645 27.2499 5.25756 27.2499H14.0505C14.0539 27.2499 14.0572 27.2499 14.0605 27.2499H30.284C30.2855 27.2499 30.287 27.2502 30.2885 27.2502C30.2895 27.2502 30.2906 27.2499 30.2916 27.2499H42.163C42.1641 27.2499 42.1652 27.2502 42.1663 27.2502C42.1672 27.2502 42.1682 27.2499 42.1691 27.2499H52.5682C52.5687 27.2499 52.5693 27.25 52.57 27.25C52.5706 27.25 52.5711 27.2499 52.5717 27.2499H52.5854C53.3746 27.2499 54.103 27.6114 54.584 28.2417C55.0793 28.8908 55.2342 29.7145 55.0089 30.502Z" fill="#67C117"/>
<path d="M39.9289 17.6013C40.4044 17.6013 40.7899 17.2194 40.7899 16.7484C40.7899 16.2774 40.4044 15.8955 39.9289 15.8955C39.4533 15.8955 39.0678 16.2774 39.0678 16.7484C39.0678 17.2194 39.4533 17.6013 39.9289 17.6013Z" fill="#67C117"/>
<path d="M41.9955 14.3602C42.471 14.3602 42.8565 13.9783 42.8565 13.5073C42.8565 13.0363 42.471 12.6544 41.9955 12.6544C41.5199 12.6544 41.1344 13.0363 41.1344 13.5073C41.1344 13.9783 41.5199 14.3602 41.9955 14.3602Z" fill="#67C117"/>
<path d="M45.2102 12.7681C45.6857 12.7681 46.0712 12.3862 46.0712 11.9152C46.0712 11.4442 45.6857 11.0623 45.2102 11.0623C44.7346 11.0623 44.3491 11.4442 44.3491 11.9152C44.3491 12.3862 44.7346 12.7681 45.2102 12.7681Z" fill="#67C117"/>
<path d="M19.6074 11.9721C20.0829 11.9721 20.4684 11.5903 20.4684 11.1192C20.4684 10.6482 20.0829 10.2664 19.6074 10.2664C19.1318 10.2664 18.7463 10.6482 18.7463 11.1192C18.7463 11.5903 19.1318 11.9721 19.6074 11.9721Z" fill="#67C117"/>
<path d="M26.9553 14.7013C27.4308 14.7013 27.8163 14.3194 27.8163 13.8484C27.8163 13.3774 27.4308 12.9955 26.9553 12.9955C26.4797 12.9955 26.0942 13.3774 26.0942 13.8484C26.0942 14.3194 26.4797 14.7013 26.9553 14.7013Z" fill="#67C117"/>
<path d="M30.9736 20.7285C31.4492 20.7285 31.8347 20.3467 31.8347 19.8756C31.8347 19.4046 31.4492 19.0228 30.9736 19.0228C30.4981 19.0228 30.1125 19.4046 30.1125 19.8756C30.1125 20.3467 30.4981 20.7285 30.9736 20.7285Z" fill="#67C117"/>
<path d="M34.418 19.5912C34.8936 19.5912 35.2791 19.2094 35.2791 18.7384C35.2791 18.2673 34.8936 17.8855 34.418 17.8855C33.9425 17.8855 33.557 18.2673 33.557 18.7384C33.557 19.2094 33.9425 19.5912 34.418 19.5912Z" fill="#67C117"/>
<path d="M31.8921 18.1129C32.3677 18.1129 32.7532 17.731 32.7532 17.26C32.7532 16.789 32.3677 16.4072 31.8921 16.4072C31.4166 16.4072 31.0311 16.789 31.0311 17.26C31.0311 17.731 31.4166 18.1129 31.8921 18.1129Z" fill="#67C117"/>
<path d="M13.8726 18.6838C14.3481 18.6838 14.7336 18.3019 14.7336 17.8309C14.7336 17.3599 14.3481 16.978 13.8726 16.978C13.397 16.978 13.0115 17.3599 13.0115 17.8309C13.0115 18.3019 13.397 18.6838 13.8726 18.6838Z" fill="#67C117"/>
<path d="M10.4236 17.4443C10.8992 17.4443 11.2847 17.0625 11.2847 16.5915C11.2847 16.1204 10.8992 15.7386 10.4236 15.7386C9.9481 15.7386 9.56259 16.1204 9.56259 16.5915C9.56259 17.0625 9.9481 17.4443 10.4236 17.4443Z" fill="#67C117"/>
<path d="M10.4098 14.3738C10.8854 14.3738 11.2709 13.992 11.2709 13.521C11.2709 13.0499 10.8854 12.6681 10.4098 12.6681C9.9343 12.6681 9.5488 13.0499 9.5488 13.521C9.5488 13.992 9.9343 14.3738 10.4098 14.3738Z" fill="#67C117"/>
<path d="M13.8599 16.0682C14.3355 16.0682 14.721 15.6863 14.721 15.2153C14.721 14.7443 14.3355 14.3624 13.8599 14.3624C13.3844 14.3624 12.9989 14.7443 12.9989 15.2153C12.9989 15.6863 13.3844 16.0682 13.8599 16.0682Z" fill="#67C117"/>
<path d="M12.3743 24.595C12.8498 24.595 13.2353 24.2132 13.2353 23.7421C13.2353 23.2711 12.8498 22.8893 12.3743 22.8893C11.8987 22.8893 11.5132 23.2711 11.5132 23.7421C11.5132 24.2132 11.8987 24.595 12.3743 24.595Z" fill="#67C117"/>
<path d="M10.0781 22.3206C10.5536 22.3206 10.9391 21.9387 10.9391 21.4677C10.9391 20.9967 10.5536 20.6148 10.0781 20.6148C9.60255 20.6148 9.21704 20.9967 9.21704 21.4677C9.21704 21.9387 9.60255 22.3206 10.0781 22.3206Z" fill="#67C117"/>
<path d="M47.3916 23.9127C47.8672 23.9127 48.2527 23.5308 48.2527 23.0598C48.2527 22.5888 47.8672 22.2069 47.3916 22.2069C46.9161 22.2069 46.5306 22.5888 46.5306 23.0598C46.5306 23.5308 46.9161 23.9127 47.3916 23.9127Z" fill="#67C117"/>
<path d="M45.2102 21.1833C45.6857 21.1833 46.0712 20.8014 46.0712 20.3304C46.0712 19.8594 45.6857 19.4775 45.2102 19.4775C44.7346 19.4775 44.3491 19.8594 44.3491 20.3304C44.3491 20.8014 44.7346 21.1833 45.2102 21.1833Z" fill="#67C117"/>
<path d="M33.6142 25.0499C34.0897 25.0499 34.4752 24.6681 34.4752 24.197C34.4752 23.726 34.0897 23.3442 33.6142 23.3442C33.1386 23.3442 32.7531 23.726 32.7531 24.197C32.7531 24.6681 33.1386 25.0499 33.6142 25.0499Z" fill="#67C117"/>
<path d="M37.0586 23.7989C37.5342 23.7989 37.9197 23.4171 37.9197 22.946C37.9197 22.475 37.5342 22.0932 37.0586 22.0932C36.5831 22.0932 36.1976 22.475 36.1976 22.946C36.1976 23.4171 36.5831 23.7989 37.0586 23.7989Z" fill="#67C117"/>
<path d="M19.2629 22.7755C19.7384 22.7755 20.1239 22.3936 20.1239 21.9226C20.1239 21.4516 19.7384 21.0697 19.2629 21.0697C18.7873 21.0697 18.4018 21.4516 18.4018 21.9226C18.4018 22.3936 18.7873 22.7755 19.2629 22.7755Z" fill="#67C117"/>
<path d="M22.0185 18.4541C22.494 18.4541 22.8795 18.0723 22.8795 17.6012C22.8795 17.1302 22.494 16.7484 22.0185 16.7484C21.5429 16.7484 21.1574 17.1302 21.1574 17.6012C21.1574 18.0723 21.5429 18.4541 22.0185 18.4541Z" fill="#67C117"/>
<path d="M22.7073 25.0499C23.1829 25.0499 23.5684 24.6681 23.5684 24.197C23.5684 23.726 23.1829 23.3442 22.7073 23.3442C22.2318 23.3442 21.8463 23.726 21.8463 24.197C21.8463 24.6681 22.2318 25.0499 22.7073 25.0499Z" fill="#67C117"/>
<path d="M23.8554 21.6382C24.331 21.6382 24.7165 21.2564 24.7165 20.7854C24.7165 20.3143 24.331 19.9325 23.8554 19.9325C23.3799 19.9325 22.9944 20.3143 22.9944 20.7854C22.9944 21.2564 23.3799 21.6382 23.8554 21.6382Z" fill="#67C117"/>
<path d="M26.1516 25.0499C26.6272 25.0499 27.0127 24.6681 27.0127 24.197C27.0127 23.726 26.6272 23.3442 26.1516 23.3442C25.6761 23.3442 25.2906 23.726 25.2906 24.197C25.2906 24.6681 25.6761 25.0499 26.1516 25.0499Z" fill="#67C117"/>
</g>
<defs>
<clipPath id="clip0">
<rect width="56.8333" height="56.2934" fill="white" transform="translate(3.05176e-05 0.523987)"/>
</clipPath>
</defs>
</svg>
