<svg width="50" height="49" viewBox="0 0 50 49" fill="none" xmlns="http://www.w3.org/2000/svg">
<g clip-path="url(#clip0)">
<path d="M49.9228 34.5516C49.9228 33.1406 49.3527 31.8128 48.3175 30.8128L40.4792 23.2411C40.4703 23.2317 40.4621 23.2218 40.4527 23.2128C40.4433 23.2037 40.4332 23.1959 40.4235 23.1872L37.8054 20.6582C37.4262 20.2921 36.8117 20.2921 36.4324 20.6582C36.0533 21.0244 36.0533 21.6182 36.4324 21.9845L38.3918 23.8774L35.15 27.0089C34.9822 27.1711 34.8817 27.3869 34.8674 27.6158C34.7646 29.2657 34.0348 30.8274 32.8151 32.0105C31.5875 33.1914 29.9708 33.8965 28.2628 33.9958C28.026 34.0096 27.8025 34.1067 27.6346 34.2688L24.3928 37.4003L14.9854 28.3127L18.2259 25.1825C18.3937 25.0203 18.4942 24.8045 18.5085 24.5756C18.6114 22.9224 19.3417 21.3613 20.565 20.1796C21.7883 18.9977 23.4045 18.2922 25.1158 18.1929C25.3527 18.1792 25.5762 18.082 25.744 17.9199L28.9844 14.7897L30.2133 15.9767C30.4029 16.1598 30.6513 16.2514 30.8997 16.2514C31.1481 16.2514 31.3966 16.1598 31.5862 15.9767C31.9653 15.6105 31.9653 15.0167 31.5862 14.6504L29.6714 12.8007C29.6713 12.8005 29.6712 12.8003 29.671 12.8002C29.6708 12.8 29.6706 12.7999 29.6704 12.7997L27.3236 10.5326C23.7212 7.0528 20.3019 7.2549 17.8049 7.40251C16.3234 7.49019 15.4608 7.51598 14.9567 7.02898L13.7141 5.8287L13.7899 5.75546C13.9719 5.57953 14.0742 5.34086 14.0742 5.09216C14.0742 4.84337 13.9718 4.60479 13.7896 4.42895L10.7739 1.51842C10.1102 0.87716 9.22433 0.523987 8.27965 0.523987C7.33497 0.523987 6.44902 0.87716 5.78519 1.51842L1.24739 5.90195C0.583559 6.54321 0.217957 7.39894 0.217957 8.31151C0.217957 9.22408 0.583559 10.0798 1.2471 10.7208L4.26035 13.6343C4.44238 13.8104 4.68935 13.9093 4.9469 13.9094H4.9471C5.20455 13.9094 5.45152 13.8105 5.63355 13.6347L5.70937 13.5615L6.95199 14.7617C7.45602 15.2486 7.42933 16.0821 7.33865 17.513C7.18585 19.925 6.97655 23.2282 10.5789 26.7082L12.9258 28.9753C12.9259 28.9754 12.9261 28.9756 12.9262 28.9758C12.9263 28.976 12.9265 28.976 12.9267 28.9761L23.6802 39.3641C23.6887 39.373 23.6964 39.3823 23.7053 39.3909C23.7143 39.3995 23.7239 39.4069 23.7331 39.4151L31.5728 46.9882C32.6079 47.9883 33.9825 48.539 35.4431 48.539C38.1557 48.539 40.4125 46.6213 40.8414 44.1152C43.1423 43.7473 44.9626 41.989 45.3433 39.7664C47.9376 39.3521 49.9228 37.172 49.9228 34.5516V34.5516ZM2.62029 9.39494C2.32323 9.10788 2.15955 8.7232 2.15955 8.31151C2.15955 7.89982 2.32323 7.51514 2.62029 7.22817L7.15809 2.84465C7.45515 2.55768 7.85347 2.39957 8.27965 2.39957C8.70583 2.39957 9.10405 2.55768 9.4015 2.84493L11.7304 5.09263L4.94748 11.645L2.62029 9.39494ZM9.27666 17.6276C9.37713 16.0417 9.47208 14.5436 8.32489 13.4355L7.08236 12.2352L12.3414 7.15502L13.584 8.3553C14.7312 9.46349 16.282 9.37168 17.9237 9.27472C20.2877 9.13498 22.967 8.9765 25.9509 11.859L27.6117 13.4635L24.6233 16.3503C22.5781 16.5532 20.6619 17.4338 19.1923 18.8532C17.7228 20.2729 16.8113 22.1239 16.6013 24.0995L13.6129 26.9863L11.9521 25.382C8.96794 22.4995 9.13191 19.9112 9.27666 17.6276ZM45.3122 37.8591C45.1033 36.8456 44.5903 35.9127 43.8167 35.1629C43.4382 34.7962 42.8237 34.7952 42.4437 35.1608C42.0641 35.5263 42.063 36.1202 42.4415 36.4871C43.1088 37.1339 43.4764 37.991 43.4764 38.9007C43.4764 40.7816 41.8923 42.3118 39.9452 42.3118C39.0035 42.3118 38.1162 41.9568 37.4467 41.3121C37.0668 40.9465 36.4523 40.9474 36.0737 41.3143C35.6952 41.6812 35.6962 42.275 36.0759 42.6406C36.852 43.3879 37.8179 43.8835 38.8669 44.0852C38.4805 45.5648 37.0921 46.6634 35.4431 46.6634C34.5011 46.6634 33.6141 46.3078 32.9457 45.662L25.766 38.7264L28.7558 35.8382C30.7967 35.6354 32.7126 34.7561 34.1882 33.3365C35.6551 31.9137 36.5651 30.0631 36.775 28.0915L39.7648 25.2034L46.9445 32.1389C47.613 32.7847 47.9812 33.6414 47.9812 34.5515C47.9812 36.1445 46.844 37.4857 45.3122 37.8591V37.8591Z" fill="#67C117"/>
<path d="M28.7327 20.4852C28.3535 20.1191 27.739 20.1191 27.3597 20.4852L20.9918 26.6365C20.6127 27.0027 20.6127 27.5966 20.9918 27.9629C21.1814 28.1459 21.4299 28.2375 21.6783 28.2375C21.9267 28.2375 22.1752 28.1459 22.3647 27.9629L28.7326 21.8115C29.1118 21.4453 29.1118 20.8515 28.7327 20.4852V20.4852Z" fill="#67C117"/>
<path d="M30.662 23.6752L24.2941 29.8266C23.9151 30.1928 23.9151 30.7866 24.2941 31.1529C24.4837 31.336 24.7322 31.4276 24.9806 31.4276C25.2291 31.4276 25.4775 31.336 25.667 31.1529L32.0349 25.0015C32.414 24.6353 32.414 24.0415 32.0349 23.6752C31.6557 23.3091 31.0412 23.3091 30.662 23.6752V23.6752Z" fill="#67C117"/>
<path d="M33.2568 19.0018C33.4458 19.1842 33.6923 19.2751 33.9392 19.2751C34.1879 19.2751 34.4367 19.1828 34.627 18.9991C35.0061 18.6329 35.0034 18.0364 34.6243 17.6702C34.2451 17.3041 33.6306 17.3041 33.2513 17.6702C32.8722 18.0364 32.8722 18.6302 33.2513 18.9965L33.2568 19.0018Z" fill="#67C117"/>
</g>
<defs>
<clipPath id="clip0">
<rect width="49.7048" height="48.015" fill="white" transform="translate(0.217957 0.523987)"/>
</clipPath>
</defs>
</svg>
