<svg width="175" height="190" viewBox="0 0 175 190" fill="none" xmlns="http://www.w3.org/2000/svg">
<g filter="url(#filter0_d)">
<rect x="26" y="39" width="99" height="89.4072" rx="11.5898" fill="white"/>
</g>
<path d="M41.7823 158.651H43.548C43.6579 159.382 44.0363 159.964 44.683 160.397C45.3298 160.831 46.1512 161.047 47.1472 161.047C48.0914 161.047 48.8708 160.821 49.4852 160.368C50.1061 159.909 50.4165 159.333 50.4165 158.641C50.4165 158.046 50.1901 157.555 49.7374 157.167C49.2847 156.772 48.5765 156.452 47.6128 156.206L45.8181 155.741C44.5504 155.424 43.6288 154.965 43.0532 154.363C42.4776 153.762 42.1898 152.963 42.1898 151.967C42.1898 150.777 42.6425 149.816 43.548 149.086C44.4599 148.348 45.6564 147.98 47.1375 147.98C48.4892 147.98 49.621 148.342 50.5329 149.066C51.4448 149.791 51.9364 150.719 52.0075 151.85H50.2516C50.1287 151.133 49.7859 150.573 49.2232 150.172C48.667 149.765 47.9524 149.561 47.0792 149.561C46.1479 149.561 45.3977 149.778 44.8285 150.211C44.2659 150.638 43.9845 151.204 43.9845 151.909C43.9845 152.458 44.1915 152.905 44.6054 153.247C45.0258 153.59 45.7178 153.884 46.6815 154.13L48.1464 154.518C49.5951 154.88 50.6332 155.366 51.2605 155.973C51.8943 156.581 52.2112 157.4 52.2112 158.428C52.2112 159.715 51.7391 160.74 50.7948 161.503C49.8506 162.26 48.5797 162.638 46.9822 162.638C45.5012 162.638 44.2853 162.276 43.3345 161.552C42.3903 160.827 41.8729 159.86 41.7823 158.651ZM54.9082 162.308V151.85H56.4992V153.5H56.6544C57.2106 152.277 58.2584 151.666 59.7977 151.666C60.9683 151.666 61.8705 152.002 62.5043 152.675C63.1381 153.341 63.455 154.295 63.455 155.537V162.308H61.7864V155.944C61.7864 155.007 61.5827 154.311 61.1752 153.859C60.7742 153.399 60.1566 153.17 59.3223 153.17C58.4815 153.17 57.8121 153.435 57.3141 153.965C56.8226 154.489 56.5768 155.207 56.5768 156.119V162.308H54.9082ZM69.7318 161.028C70.592 161.028 71.3034 160.779 71.8661 160.281C72.4352 159.783 72.7198 159.159 72.7198 158.408V157.448L69.9064 157.632C69.1174 157.684 68.5385 157.849 68.1699 158.127C67.8012 158.405 67.6169 158.809 67.6169 159.34C67.6169 159.864 67.8142 160.278 68.2087 160.582C68.6032 160.879 69.1109 161.028 69.7318 161.028ZM69.4213 162.493C68.393 162.493 67.5458 162.211 66.8796 161.649C66.2199 161.08 65.8901 160.323 65.8901 159.379C65.8901 158.447 66.2199 157.716 66.8796 157.186C67.5393 156.656 68.4803 156.355 69.7027 156.284L72.7198 156.1V155.149C72.7198 154.502 72.5193 154.007 72.1183 153.665C71.7173 153.322 71.1288 153.15 70.3527 153.15C69.7253 153.15 69.2047 153.264 68.7908 153.49C68.3768 153.716 68.1117 154.036 67.9953 154.45H66.3072C66.4172 153.616 66.8473 152.943 67.5975 152.432C68.3542 151.922 69.292 151.666 70.4109 151.666C71.6785 151.666 72.6583 151.973 73.3504 152.588C74.0424 153.202 74.3884 154.056 74.3884 155.149V162.308H72.7974V160.766H72.6422C72.3059 161.322 71.8596 161.749 71.3034 162.046C70.7472 162.344 70.1198 162.493 69.4213 162.493ZM86.127 155.052H84.439C84.2967 154.502 83.9895 154.053 83.5173 153.703C83.0517 153.348 82.4599 153.17 81.742 153.17C80.8042 153.17 80.0572 153.519 79.501 154.218C78.9513 154.916 78.6764 155.857 78.6764 157.041C78.6764 158.244 78.9545 159.204 79.5107 159.922C80.0669 160.633 80.8107 160.989 81.742 160.989C82.447 160.989 83.0323 160.831 83.4979 160.514C83.9701 160.197 84.2837 159.744 84.439 159.155H86.127C85.9718 160.145 85.5093 160.95 84.7397 161.571C83.9701 162.186 82.9741 162.493 81.7517 162.493C80.2836 162.493 79.1162 162.001 78.2495 161.018C77.3829 160.029 76.9496 158.703 76.9496 157.041C76.9496 155.411 77.3829 154.108 78.2495 153.131C79.1162 152.154 80.2803 151.666 81.742 151.666C82.9644 151.666 83.9604 151.986 84.73 152.627C85.5061 153.267 85.9718 154.075 86.127 155.052ZM90.512 156.42L95.0522 151.85H97.0992L92.5977 156.332L97.3999 162.308H95.2753L91.356 157.409L90.3567 158.341V162.308H88.6881V147.698H90.3567V156.42H90.512ZM98.7484 154.712C98.7484 153.846 99.1203 153.121 99.864 152.539C100.608 151.957 101.536 151.666 102.648 151.666C103.741 151.666 104.644 151.918 105.355 152.423C106.066 152.927 106.477 153.61 106.587 154.47H104.938C104.821 154.043 104.563 153.707 104.162 153.461C103.767 153.209 103.259 153.082 102.639 153.082C102.011 153.082 101.484 153.228 101.057 153.519C100.637 153.81 100.427 154.185 100.427 154.644C100.427 155 100.572 155.298 100.863 155.537C101.161 155.77 101.62 155.961 102.241 156.109L103.851 156.497C104.847 156.737 105.581 157.083 106.053 157.535C106.532 157.988 106.771 158.586 106.771 159.33C106.771 160.255 106.374 161.015 105.578 161.61C104.783 162.198 103.783 162.493 102.58 162.493C101.416 162.493 100.462 162.234 99.7185 161.717C98.9747 161.199 98.5576 160.507 98.467 159.641H100.184C100.326 160.093 100.608 160.449 101.028 160.708C101.449 160.96 101.985 161.086 102.639 161.086C103.344 161.086 103.922 160.934 104.375 160.63C104.828 160.326 105.054 159.935 105.054 159.456C105.054 158.745 104.501 158.253 103.395 157.982L101.601 157.545C100.611 157.306 99.8867 156.963 99.4275 156.517C98.9747 156.064 98.7484 155.463 98.7484 154.712Z" fill="#131010"/>
<g clip-path="url(#clip0)">
<path d="M103.958 87.2131C103.25 86.2859 102.222 85.7045 101.083 85.5729L97.3108 79.1012L96.7117 70.027C96.6436 68.9947 96.0436 68.1049 95.1067 67.6471C94.17 67.1894 93.0921 67.2591 92.2235 67.8339L85.2853 72.4243C84.9364 72.0762 84.498 71.8174 84.006 71.6803C83.2053 71.4574 82.3473 71.5903 81.6476 72.0444C81.27 71.5668 80.7425 71.2165 80.1229 71.0521L68.0478 67.8473C67.039 67.5792 65.9955 67.8563 65.2569 68.5879C64.5181 69.3196 64.2386 70.3529 64.509 71.3524L64.8113 72.4699L59.3343 68.863C58.4643 68.29 57.3863 68.2223 56.4506 68.6823C55.5148 69.142 54.9168 70.0329 54.8509 71.0655L54.4527 77.3038L54.3853 77.286C53.3764 77.0181 52.3331 77.2951 51.5944 78.0266C50.8557 78.7583 50.5762 79.7916 50.8466 80.7911L52.1332 85.5476C50.8444 85.5826 49.662 86.1844 48.8748 87.2144C48.054 88.2885 47.7951 89.6489 48.1647 90.9466C49.6826 96.2759 53.7833 100.923 59.7348 104.074C59.8609 105.645 60.5614 107.101 61.7263 108.201C62.9512 109.357 64.5539 109.994 66.2389 109.994H86.5974C88.2824 109.994 89.885 109.357 91.1101 108.201C92.2746 107.101 92.975 105.646 93.1015 104.076C99.0448 100.929 103.143 96.2891 104.666 90.9672C105.04 89.6608 104.782 88.2925 103.958 87.2131ZM95.728 79.7968L99.0781 85.5441H93.2904C93.4866 85.3877 93.6123 85.1484 93.6123 84.8796C93.6121 84.4086 93.2266 84.0268 92.751 84.0268C92.2755 84.0268 91.89 84.4086 91.89 84.8797C91.89 85.1485 92.0159 85.3878 92.212 85.5442H91.2973L92.2202 82.2353C92.4683 81.3456 92.28 80.4216 91.7034 79.7002C91.4281 79.356 91.0803 79.084 90.6924 78.8973L91.9372 76.7617C92.1482 76.3998 92.526 76.1837 92.9481 76.1837C93.3701 76.1837 93.7479 76.3998 93.959 76.7617L95.7258 79.7928C95.7265 79.7942 95.7271 79.7954 95.728 79.7968ZM93.1802 69.2523C93.531 69.0201 93.9665 68.9917 94.3449 69.1769C94.7233 69.3618 94.9657 69.7211 94.9932 70.1381L95.3651 75.7736C94.8301 74.9597 93.9384 74.4779 92.9477 74.4779C91.9031 74.4779 90.9677 75.0128 90.4454 75.9089L88.8332 78.6746C88.7916 78.6835 88.7498 78.6925 88.7086 78.7032L86.4524 79.2835L86.1138 74.2473C86.1072 74.1475 86.0941 74.049 86.0773 73.9514L93.1802 69.2523ZM85.8882 81.1909C85.8899 81.1905 85.8917 81.19 85.8935 81.1896L89.1418 80.3541C89.226 80.3325 89.3133 80.3197 89.4005 80.3164C89.7638 80.3045 90.1204 80.4681 90.3531 80.7594C90.4895 80.9297 90.6975 81.2891 90.5602 81.7811L89.5106 85.5442H87.8941C88.0902 85.3878 88.2159 85.1485 88.2159 84.8798C88.2159 84.4088 87.8304 84.0269 87.3549 84.0269C86.8793 84.0269 86.4938 84.4088 86.4938 84.8798C86.4938 85.1486 86.6197 85.388 86.8158 85.5443H79.3124C79.3012 85.0738 79.1715 84.6073 78.9237 84.1822L78.3156 83.1387L85.8882 81.1909ZM81.7938 73.9992C81.7954 73.9982 81.7971 73.997 81.7986 73.996L82.5813 73.4768C82.8701 73.2852 83.2103 73.2303 83.5396 73.322C83.8749 73.4155 84.1486 73.6436 84.2904 73.9482C84.3503 74.0769 84.3856 74.2157 84.3954 74.3605L84.7557 79.7199L77.4221 81.6062L75.4434 78.2114L81.7938 73.9992ZM77.5896 85.5442H62.7521C62.7612 85.3888 62.8042 85.2156 62.9094 85.0349L69.1599 74.3114C69.371 73.9494 69.7488 73.7333 70.1708 73.7333C70.5929 73.7333 70.9707 73.9494 71.1817 74.3114L77.4323 85.0349C77.5374 85.2155 77.5805 85.3887 77.5896 85.5442ZM66.4746 69.794C66.7729 69.4983 67.1943 69.3867 67.602 69.4948L79.6771 72.6996C79.8852 72.7548 80.0645 72.8585 80.2058 72.9998L74.5805 76.7312L72.6731 73.4588C72.1508 72.5627 71.2153 72.0277 70.1707 72.0277C69.1262 72.0277 68.1907 72.5626 67.6684 73.4588L67.2924 74.1039L66.9806 73.8985L66.1724 70.911C66.0632 70.507 66.1762 70.0894 66.4746 69.794ZM56.5694 71.1732C56.5961 70.756 56.8376 70.3962 57.2157 70.2105C57.5937 70.0247 58.0291 70.0518 58.3806 70.2836L66.4296 75.584L63.9567 79.8264L56.1492 77.7544L56.5694 71.1732ZM52.8121 79.2327C53.1105 78.9371 53.532 78.8255 53.9397 78.9336L55.0167 79.2194C55.0186 79.2199 55.0205 79.2204 55.0224 79.2209L63.0655 81.3555L61.418 84.182C61.1703 84.6071 61.0406 85.0737 61.0294 85.5442H53.9153L52.51 80.3495C52.4007 79.9457 52.5137 79.5282 52.8121 79.2327ZM103.009 90.502C101.61 95.3913 97.7875 99.6753 92.2277 102.602H68.3799C67.9044 102.602 67.5189 102.984 67.5189 103.455C67.5189 103.926 67.9044 104.308 68.3799 104.308H91.3377C90.9672 106.549 88.9544 108.288 86.5976 108.288H66.239C63.882 108.288 61.869 106.549 61.4989 104.308H64.9357C65.4113 104.308 65.7968 103.926 65.7968 103.455C65.7968 102.984 65.4113 102.602 64.9357 102.602H60.6114C55.0424 99.6709 51.217 95.3799 49.8224 90.4834C49.6006 89.7044 49.7556 88.8882 50.248 88.2438C50.7307 87.6121 51.4608 87.2499 52.2513 87.2499H53.2513C53.2522 87.2499 53.2532 87.2502 53.2541 87.2502C53.2552 87.2502 53.2564 87.2499 53.2576 87.2499H62.0505C62.0539 87.2499 62.0572 87.2499 62.0605 87.2499H78.284C78.2855 87.2499 78.287 87.2502 78.2885 87.2502C78.2895 87.2502 78.2906 87.2499 78.2916 87.2499H90.163C90.1641 87.2499 90.1652 87.2502 90.1663 87.2502C90.1672 87.2502 90.1682 87.2499 90.1691 87.2499H100.568C100.569 87.2499 100.569 87.25 100.57 87.25C100.571 87.25 100.571 87.2499 100.572 87.2499H100.585C101.375 87.2499 102.103 87.6114 102.584 88.2417C103.079 88.8908 103.234 89.7145 103.009 90.502Z" fill="#67C117"/>
<path d="M87.9289 77.6013C88.4044 77.6013 88.7899 77.2194 88.7899 76.7484C88.7899 76.2774 88.4044 75.8955 87.9289 75.8955C87.4533 75.8955 87.0678 76.2774 87.0678 76.7484C87.0678 77.2194 87.4533 77.6013 87.9289 77.6013Z" fill="#67C117"/>
<path d="M89.9955 74.3602C90.471 74.3602 90.8565 73.9783 90.8565 73.5073C90.8565 73.0363 90.471 72.6544 89.9955 72.6544C89.5199 72.6544 89.1344 73.0363 89.1344 73.5073C89.1344 73.9783 89.5199 74.3602 89.9955 74.3602Z" fill="#67C117"/>
<path d="M93.2102 72.7681C93.6857 72.7681 94.0712 72.3862 94.0712 71.9152C94.0712 71.4442 93.6857 71.0623 93.2102 71.0623C92.7346 71.0623 92.3491 71.4442 92.3491 71.9152C92.3491 72.3862 92.7346 72.7681 93.2102 72.7681Z" fill="#67C117"/>
<path d="M67.6074 71.9721C68.0829 71.9721 68.4684 71.5903 68.4684 71.1192C68.4684 70.6482 68.0829 70.2664 67.6074 70.2664C67.1318 70.2664 66.7463 70.6482 66.7463 71.1192C66.7463 71.5903 67.1318 71.9721 67.6074 71.9721Z" fill="#67C117"/>
<path d="M74.9553 74.7013C75.4308 74.7013 75.8163 74.3194 75.8163 73.8484C75.8163 73.3774 75.4308 72.9955 74.9553 72.9955C74.4797 72.9955 74.0942 73.3774 74.0942 73.8484C74.0942 74.3194 74.4797 74.7013 74.9553 74.7013Z" fill="#67C117"/>
<path d="M78.9736 80.7285C79.4492 80.7285 79.8347 80.3467 79.8347 79.8756C79.8347 79.4046 79.4492 79.0228 78.9736 79.0228C78.4981 79.0228 78.1125 79.4046 78.1125 79.8756C78.1125 80.3467 78.4981 80.7285 78.9736 80.7285Z" fill="#67C117"/>
<path d="M82.418 79.5912C82.8936 79.5912 83.2791 79.2094 83.2791 78.7384C83.2791 78.2673 82.8936 77.8855 82.418 77.8855C81.9425 77.8855 81.557 78.2673 81.557 78.7384C81.557 79.2094 81.9425 79.5912 82.418 79.5912Z" fill="#67C117"/>
<path d="M79.8921 78.1129C80.3677 78.1129 80.7532 77.731 80.7532 77.26C80.7532 76.789 80.3677 76.4072 79.8921 76.4072C79.4166 76.4072 79.0311 76.789 79.0311 77.26C79.0311 77.731 79.4166 78.1129 79.8921 78.1129Z" fill="#67C117"/>
<path d="M61.8726 78.6838C62.3481 78.6838 62.7336 78.3019 62.7336 77.8309C62.7336 77.3599 62.3481 76.978 61.8726 76.978C61.397 76.978 61.0115 77.3599 61.0115 77.8309C61.0115 78.3019 61.397 78.6838 61.8726 78.6838Z" fill="#67C117"/>
<path d="M58.4236 77.4443C58.8992 77.4443 59.2847 77.0625 59.2847 76.5915C59.2847 76.1204 58.8992 75.7386 58.4236 75.7386C57.9481 75.7386 57.5626 76.1204 57.5626 76.5915C57.5626 77.0625 57.9481 77.4443 58.4236 77.4443Z" fill="#67C117"/>
<path d="M58.4098 74.3738C58.8854 74.3738 59.2709 73.992 59.2709 73.521C59.2709 73.0499 58.8854 72.6681 58.4098 72.6681C57.9343 72.6681 57.5488 73.0499 57.5488 73.521C57.5488 73.992 57.9343 74.3738 58.4098 74.3738Z" fill="#67C117"/>
<path d="M61.8599 76.0682C62.3355 76.0682 62.721 75.6863 62.721 75.2153C62.721 74.7443 62.3355 74.3624 61.8599 74.3624C61.3844 74.3624 60.9989 74.7443 60.9989 75.2153C60.9989 75.6863 61.3844 76.0682 61.8599 76.0682Z" fill="#67C117"/>
<path d="M60.3743 84.595C60.8498 84.595 61.2353 84.2132 61.2353 83.7421C61.2353 83.2711 60.8498 82.8893 60.3743 82.8893C59.8987 82.8893 59.5132 83.2711 59.5132 83.7421C59.5132 84.2132 59.8987 84.595 60.3743 84.595Z" fill="#67C117"/>
<path d="M58.0781 82.3206C58.5536 82.3206 58.9391 81.9387 58.9391 81.4677C58.9391 80.9967 58.5536 80.6148 58.0781 80.6148C57.6025 80.6148 57.217 80.9967 57.217 81.4677C57.217 81.9387 57.6025 82.3206 58.0781 82.3206Z" fill="#67C117"/>
<path d="M95.3916 83.9127C95.8672 83.9127 96.2527 83.5308 96.2527 83.0598C96.2527 82.5888 95.8672 82.2069 95.3916 82.2069C94.9161 82.2069 94.5306 82.5888 94.5306 83.0598C94.5306 83.5308 94.9161 83.9127 95.3916 83.9127Z" fill="#67C117"/>
<path d="M93.2102 81.1833C93.6857 81.1833 94.0712 80.8014 94.0712 80.3304C94.0712 79.8594 93.6857 79.4775 93.2102 79.4775C92.7346 79.4775 92.3491 79.8594 92.3491 80.3304C92.3491 80.8014 92.7346 81.1833 93.2102 81.1833Z" fill="#67C117"/>
<path d="M81.6142 85.0499C82.0897 85.0499 82.4752 84.6681 82.4752 84.197C82.4752 83.726 82.0897 83.3442 81.6142 83.3442C81.1386 83.3442 80.7531 83.726 80.7531 84.197C80.7531 84.6681 81.1386 85.0499 81.6142 85.0499Z" fill="#67C117"/>
<path d="M85.0586 83.7989C85.5342 83.7989 85.9197 83.4171 85.9197 82.946C85.9197 82.475 85.5342 82.0932 85.0586 82.0932C84.5831 82.0932 84.1976 82.475 84.1976 82.946C84.1976 83.4171 84.5831 83.7989 85.0586 83.7989Z" fill="#67C117"/>
<path d="M67.2629 82.7755C67.7384 82.7755 68.1239 82.3936 68.1239 81.9226C68.1239 81.4516 67.7384 81.0697 67.2629 81.0697C66.7873 81.0697 66.4018 81.4516 66.4018 81.9226C66.4018 82.3936 66.7873 82.7755 67.2629 82.7755Z" fill="#67C117"/>
<path d="M70.0185 78.4541C70.494 78.4541 70.8795 78.0723 70.8795 77.6012C70.8795 77.1302 70.494 76.7484 70.0185 76.7484C69.5429 76.7484 69.1574 77.1302 69.1574 77.6012C69.1574 78.0723 69.5429 78.4541 70.0185 78.4541Z" fill="#67C117"/>
<path d="M70.7073 85.0499C71.1829 85.0499 71.5684 84.6681 71.5684 84.197C71.5684 83.726 71.1829 83.3442 70.7073 83.3442C70.2318 83.3442 69.8463 83.726 69.8463 84.197C69.8463 84.6681 70.2318 85.0499 70.7073 85.0499Z" fill="#67C117"/>
<path d="M71.8554 81.6382C72.331 81.6382 72.7165 81.2564 72.7165 80.7854C72.7165 80.3143 72.331 79.9325 71.8554 79.9325C71.3799 79.9325 70.9944 80.3143 70.9944 80.7854C70.9944 81.2564 71.3799 81.6382 71.8554 81.6382Z" fill="#67C117"/>
<path d="M74.1516 85.0499C74.6272 85.0499 75.0127 84.6681 75.0127 84.197C75.0127 83.726 74.6272 83.3442 74.1516 83.3442C73.6761 83.3442 73.2906 83.726 73.2906 84.197C73.2906 84.6681 73.6761 85.0499 74.1516 85.0499Z" fill="#67C117"/>
</g>
<defs>
<filter id="filter0_d" x="-23.6707" y="0.91916" width="198.341" height="188.749" filterUnits="userSpaceOnUse" color-interpolation-filters="sRGB">
<feFlood flood-opacity="0" result="BackgroundImageFix"/>
<feColorMatrix in="SourceAlpha" type="matrix" values="0 0 0 0 0 0 0 0 0 0 0 0 0 0 0 0 0 0 127 0"/>
<feOffset dy="11.5898"/>
<feGaussianBlur stdDeviation="24.8353"/>
<feColorMatrix type="matrix" values="0 0 0 0 0.4 0 0 0 0 0.678431 0 0 0 0 0.152941 0 0 0 0.17 0"/>
<feBlend mode="normal" in2="BackgroundImageFix" result="effect1_dropShadow"/>
<feBlend mode="normal" in="SourceGraphic" in2="effect1_dropShadow" result="shape"/>
</filter>
<clipPath id="clip0">
<rect width="56.8333" height="56.2934" fill="white" transform="translate(48 60.524)"/>
</clipPath>
</defs>
</svg>
